<svg id="Layer_1" data-name="Layer 1" xmlns="http://www.w3.org/2000/svg" viewBox="0 0 817.41 757.14"><defs><style>.cls-1{fill:none;stroke:#231f20;stroke-miterlimit:10;}</style></defs><title>roboCarBase</title><rect class="cls-1" x="426.08" y="649.07" width="25.51" height="39.69"/><circle class="cls-1" cx="399.16" cy="637.73" r="5.67"/><circle class="cls-1" cx="478.53" cy="637.73" r="5.67"/><circle class="cls-1" cx="399.16" cy="700.09" r="5.67"/><circle class="cls-1" cx="478.53" cy="700.09" r="5.67"/><circle class="cls-1" cx="438.84" cy="146.16" r="34.26"/><circle class="cls-1" cx="6.17" cy="695.23" r="5.67"/><circle class="cls-1" cx="11.84" cy="728.45" r="5.67"/><circle class="cls-1" cx="387.82" cy="291.91" r="5.67"/><circle class="cls-1" cx="489.86" cy="291.91" r="5.67"/><circle class="cls-1" cx="387.82" cy="393.96" r="5.67"/><circle class="cls-1" cx="489.86" cy="393.96" r="5.67"/><rect class="cls-1" x="348.13" y="58.34" width="181.42" height="20" rx="10"/><circle class="cls-1" cx="495.53" cy="39.04" r="5.67"/><circle class="cls-1" cx="467.19" cy="39.04" r="5.67"/><circle class="cls-1" cx="438.84" cy="39.04" r="5.67"/><circle class="cls-1" cx="523.88" cy="39.04" r="5.67"/><circle class="cls-1" cx="410.49" cy="39.04" r="5.67"/><circle class="cls-1" cx="382.15" cy="39.04" r="5.67"/><circle class="cls-1" cx="353.8" cy="39.04" r="5.67"/><circle class="cls-1" cx="240.42" cy="388.29" r="5.67"/><circle class="cls-1" cx="240.42" cy="359.94" r="5.67"/><circle class="cls-1" cx="212.07" cy="388.29" r="5.67"/><circle class="cls-1" cx="212.07" cy="359.94" r="5.67"/><circle class="cls-1" cx="183.72" cy="388.29" r="5.67"/><circle class="cls-1" cx="183.72" cy="359.94" r="5.67"/><circle class="cls-1" cx="268.76" cy="388.29" r="5.67"/><circle class="cls-1" cx="268.76" cy="359.94" r="5.67"/><circle class="cls-1" cx="155.38" cy="388.29" r="5.67"/><circle class="cls-1" cx="155.38" cy="359.94" r="5.67"/><circle class="cls-1" cx="127.03" cy="388.29" r="5.67"/><circle class="cls-1" cx="127.03" cy="359.94" r="5.67"/><circle class="cls-1" cx="98.68" cy="388.29" r="5.67"/><circle class="cls-1" cx="98.68" cy="359.94" r="5.67"/><circle class="cls-1" cx="353.8" cy="388.29" r="5.67"/><circle class="cls-1" cx="325.46" cy="388.29" r="5.67"/><circle class="cls-1" cx="325.46" cy="359.94" r="5.67"/><circle class="cls-1" cx="297.11" cy="388.29" r="5.67"/><circle class="cls-1" cx="297.11" cy="359.94" r="5.67"/><circle class="cls-1" cx="580.57" cy="388.29" r="5.67"/><circle class="cls-1" cx="580.57" cy="359.94" r="5.67"/><circle class="cls-1" cx="552.23" cy="388.29" r="5.67"/><circle class="cls-1" cx="552.23" cy="359.94" r="5.67"/><circle class="cls-1" cx="523.88" cy="388.29" r="5.67"/><circle class="cls-1" cx="608.92" cy="388.29" r="5.67"/><circle class="cls-1" cx="608.92" cy="359.94" r="5.67"/><circle class="cls-1" cx="750.65" cy="388.29" r="5.67"/><circle class="cls-1" cx="750.65" cy="359.94" r="5.67"/><circle class="cls-1" cx="722.31" cy="388.29" r="5.67"/><circle class="cls-1" cx="722.31" cy="359.94" r="5.67"/><circle class="cls-1" cx="693.96" cy="388.29" r="5.67"/><circle class="cls-1" cx="693.96" cy="359.94" r="5.67"/><circle class="cls-1" cx="779" cy="388.29" r="5.67"/><circle class="cls-1" cx="779" cy="359.94" r="5.67"/><circle class="cls-1" cx="665.61" cy="388.29" r="5.67"/><circle class="cls-1" cx="665.61" cy="359.94" r="5.67"/><circle class="cls-1" cx="637.27" cy="388.29" r="5.67"/><circle class="cls-1" cx="594.75" cy="374.12" r="5.67"/><circle class="cls-1" cx="566.4" cy="374.12" r="5.67"/><circle class="cls-1" cx="538.05" cy="374.12" r="5.67"/><circle class="cls-1" cx="623.09" cy="374.12" r="5.67"/><circle class="cls-1" cx="764.83" cy="374.12" r="5.67"/><circle class="cls-1" cx="736.48" cy="374.12" r="5.67"/><circle class="cls-1" cx="708.13" cy="374.12" r="5.67"/><circle class="cls-1" cx="793.17" cy="374.12" r="5.67"/><circle class="cls-1" cx="679.79" cy="374.12" r="5.67"/><circle class="cls-1" cx="651.44" cy="374.12" r="5.67"/><circle class="cls-1" cx="141.2" cy="374.12" r="5.67"/><circle class="cls-1" cx="112.86" cy="374.12" r="5.67"/><circle class="cls-1" cx="84.51" cy="374.12" r="5.67"/><circle class="cls-1" cx="169.55" cy="374.12" r="5.67"/><circle class="cls-1" cx="311.28" cy="374.12" r="5.67"/><circle class="cls-1" cx="282.94" cy="374.12" r="5.67"/><circle class="cls-1" cx="254.59" cy="374.12" r="5.67"/><circle class="cls-1" cx="339.63" cy="374.12" r="5.67"/><circle class="cls-1" cx="226.24" cy="374.12" r="5.67"/><circle class="cls-1" cx="197.9" cy="374.12" r="5.67"/><circle class="cls-1" cx="637.27" cy="359.94" r="5.67"/><circle class="cls-1" cx="240.42" cy="444.98" r="5.67"/><circle class="cls-1" cx="240.42" cy="416.64" r="5.67"/><circle class="cls-1" cx="212.07" cy="444.98" r="5.67"/><circle class="cls-1" cx="212.07" cy="416.64" r="5.67"/><circle class="cls-1" cx="183.72" cy="444.98" r="5.67"/><circle class="cls-1" cx="183.72" cy="416.64" r="5.67"/><circle class="cls-1" cx="268.76" cy="444.98" r="5.67"/><circle class="cls-1" cx="268.76" cy="416.64" r="5.67"/><circle class="cls-1" cx="155.38" cy="444.98" r="5.67"/><circle class="cls-1" cx="155.38" cy="416.64" r="5.67"/><circle class="cls-1" cx="127.03" cy="444.98" r="5.67"/><circle class="cls-1" cx="127.03" cy="416.64" r="5.67"/><circle class="cls-1" cx="98.68" cy="444.98" r="5.67"/><circle class="cls-1" cx="98.68" cy="416.64" r="5.67"/><circle class="cls-1" cx="410.49" cy="444.98" r="5.67"/><circle class="cls-1" cx="382.15" cy="444.98" r="5.67"/><circle class="cls-1" cx="353.8" cy="444.98" r="5.67"/><circle class="cls-1" cx="353.8" cy="416.64" r="5.67"/><circle class="cls-1" cx="438.84" cy="444.98" r="5.67"/><circle class="cls-1" cx="325.46" cy="444.98" r="5.67"/><circle class="cls-1" cx="325.46" cy="416.64" r="5.67"/><circle class="cls-1" cx="297.11" cy="444.98" r="5.67"/><circle class="cls-1" cx="297.11" cy="416.64" r="5.67"/><circle class="cls-1" cx="226.24" cy="430.81" r="5.67"/><circle class="cls-1" cx="197.9" cy="430.81" r="5.67"/><circle class="cls-1" cx="169.55" cy="430.81" r="5.67"/><circle class="cls-1" cx="254.59" cy="430.81" r="5.67"/><circle class="cls-1" cx="141.2" cy="430.81" r="5.67"/><circle class="cls-1" cx="112.86" cy="430.81" r="5.67"/><circle class="cls-1" cx="84.51" cy="430.81" r="5.67"/><circle class="cls-1" cx="339.63" cy="430.81" r="5.67"/><circle class="cls-1" cx="311.28" cy="430.81" r="5.67"/><circle class="cls-1" cx="282.94" cy="430.81" r="5.67"/><circle class="cls-1" cx="679.79" cy="430.81" r="5.67"/><circle class="cls-1" cx="651.44" cy="430.81" r="5.67"/><circle class="cls-1" cx="623.09" cy="430.81" r="5.67"/><circle class="cls-1" cx="708.13" cy="430.81" r="5.67"/><circle class="cls-1" cx="594.75" cy="430.81" r="5.67"/><circle class="cls-1" cx="566.4" cy="430.81" r="5.67"/><circle class="cls-1" cx="538.05" cy="430.81" r="5.67"/><circle class="cls-1" cx="793.17" cy="430.81" r="5.67"/><circle class="cls-1" cx="764.83" cy="430.81" r="5.67"/><circle class="cls-1" cx="736.48" cy="430.81" r="5.67"/><circle class="cls-1" cx="679.79" cy="402.46" r="5.67"/><circle class="cls-1" cx="651.44" cy="402.46" r="5.67"/><circle class="cls-1" cx="623.09" cy="402.46" r="5.67"/><circle class="cls-1" cx="708.13" cy="402.46" r="5.67"/><circle class="cls-1" cx="594.75" cy="402.46" r="5.67"/><circle class="cls-1" cx="566.4" cy="402.46" r="5.67"/><circle class="cls-1" cx="538.05" cy="402.46" r="5.67"/><circle class="cls-1" cx="793.17" cy="402.46" r="5.67"/><circle class="cls-1" cx="764.83" cy="402.46" r="5.67"/><circle class="cls-1" cx="736.48" cy="402.46" r="5.67"/><circle class="cls-1" cx="226.24" cy="402.46" r="5.67"/><circle class="cls-1" cx="226.24" cy="487.5" r="5.67"/><circle class="cls-1" cx="226.24" cy="544.2" r="5.67"/><circle class="cls-1" cx="226.24" cy="515.85" r="5.67"/><circle class="cls-1" cx="282.94" cy="487.5" r="5.67"/><circle class="cls-1" cx="282.94" cy="544.2" r="5.67"/><circle class="cls-1" cx="282.94" cy="515.85" r="5.67"/><circle class="cls-1" cx="339.63" cy="487.5" r="5.67"/><circle class="cls-1" cx="339.63" cy="544.2" r="5.67"/><circle class="cls-1" cx="339.63" cy="515.85" r="5.67"/><circle class="cls-1" cx="396.32" cy="487.5" r="5.67"/><circle class="cls-1" cx="396.32" cy="544.2" r="5.67"/><circle class="cls-1" cx="396.32" cy="515.85" r="5.67"/><circle class="cls-1" cx="453.01" cy="487.5" r="5.67"/><circle class="cls-1" cx="453.01" cy="544.2" r="5.67"/><circle class="cls-1" cx="453.01" cy="515.85" r="5.67"/><circle class="cls-1" cx="509.71" cy="487.5" r="5.67"/><circle class="cls-1" cx="509.71" cy="544.2" r="5.67"/><circle class="cls-1" cx="509.71" cy="515.85" r="5.67"/><circle class="cls-1" cx="566.4" cy="487.5" r="5.67"/><circle class="cls-1" cx="566.4" cy="544.2" r="5.67"/><circle class="cls-1" cx="566.4" cy="515.85" r="5.67"/><circle class="cls-1" cx="623.09" cy="487.5" r="5.67"/><circle class="cls-1" cx="623.09" cy="544.2" r="5.67"/><circle class="cls-1" cx="623.09" cy="515.85" r="5.67"/><circle class="cls-1" cx="679.79" cy="487.5" r="5.67"/><circle class="cls-1" cx="679.79" cy="544.2" r="5.67"/><circle class="cls-1" cx="679.79" cy="515.85" r="5.67"/><circle class="cls-1" cx="736.48" cy="487.5" r="5.67"/><circle class="cls-1" cx="736.48" cy="544.2" r="5.67"/><circle class="cls-1" cx="736.48" cy="515.85" r="5.67"/><circle class="cls-1" cx="169.55" cy="487.5" r="5.67"/><circle class="cls-1" cx="169.55" cy="544.2" r="5.67"/><circle class="cls-1" cx="169.55" cy="515.85" r="5.67"/><circle class="cls-1" cx="141.2" cy="487.5" r="5.67"/><circle class="cls-1" cx="141.2" cy="544.2" r="5.67"/><circle class="cls-1" cx="141.2" cy="515.85" r="5.67"/><circle class="cls-1" cx="197.9" cy="487.5" r="5.67"/><circle class="cls-1" cx="197.9" cy="544.2" r="5.67"/><circle class="cls-1" cx="197.9" cy="515.85" r="5.67"/><circle class="cls-1" cx="254.59" cy="487.5" r="5.67"/><circle class="cls-1" cx="254.59" cy="544.2" r="5.67"/><circle class="cls-1" cx="254.59" cy="515.85" r="5.67"/><circle class="cls-1" cx="311.28" cy="487.5" r="5.67"/><circle class="cls-1" cx="311.28" cy="544.2" r="5.67"/><circle class="cls-1" cx="311.28" cy="515.85" r="5.67"/><circle class="cls-1" cx="367.97" cy="487.5" r="5.67"/><circle class="cls-1" cx="367.97" cy="544.2" r="5.67"/><circle class="cls-1" cx="367.97" cy="515.85" r="5.67"/><circle class="cls-1" cx="424.67" cy="487.5" r="5.67"/><circle class="cls-1" cx="424.67" cy="544.2" r="5.67"/><circle class="cls-1" cx="424.67" cy="515.85" r="5.67"/><circle class="cls-1" cx="481.36" cy="487.5" r="5.67"/><circle class="cls-1" cx="481.36" cy="544.2" r="5.67"/><circle class="cls-1" cx="481.36" cy="515.85" r="5.67"/><circle class="cls-1" cx="538.05" cy="487.5" r="5.67"/><circle class="cls-1" cx="538.05" cy="544.2" r="5.67"/><circle class="cls-1" cx="538.05" cy="515.85" r="5.67"/><circle class="cls-1" cx="594.75" cy="487.5" r="5.67"/><circle class="cls-1" cx="594.75" cy="544.2" r="5.67"/><circle class="cls-1" cx="594.75" cy="515.85" r="5.67"/><circle class="cls-1" cx="651.44" cy="487.5" r="5.67"/><circle class="cls-1" cx="651.44" cy="544.2" r="5.67"/><circle class="cls-1" cx="651.44" cy="515.85" r="5.67"/><circle class="cls-1" cx="708.13" cy="487.5" r="5.67"/><circle class="cls-1" cx="708.13" cy="544.2" r="5.67"/><circle class="cls-1" cx="708.13" cy="515.85" r="5.67"/><circle class="cls-1" cx="197.9" cy="402.46" r="5.67"/><circle class="cls-1" cx="169.55" cy="402.46" r="5.67"/><circle class="cls-1" cx="254.59" cy="402.46" r="5.67"/><circle class="cls-1" cx="141.2" cy="402.46" r="5.67"/><circle class="cls-1" cx="112.86" cy="402.46" r="5.67"/><circle class="cls-1" cx="84.51" cy="402.46" r="5.67"/><circle class="cls-1" cx="339.63" cy="402.46" r="5.67"/><circle class="cls-1" cx="311.28" cy="402.46" r="5.67"/><circle class="cls-1" cx="282.94" cy="402.46" r="5.67"/><circle class="cls-1" cx="580.57" cy="444.98" r="5.67"/><circle class="cls-1" cx="580.57" cy="416.64" r="5.67"/><circle class="cls-1" cx="552.23" cy="444.98" r="5.67"/><circle class="cls-1" cx="552.23" cy="416.64" r="5.67"/><circle class="cls-1" cx="523.88" cy="444.98" r="5.67"/><circle class="cls-1" cx="523.88" cy="416.64" r="5.67"/><circle class="cls-1" cx="608.92" cy="444.98" r="5.67"/><circle class="cls-1" cx="608.92" cy="416.64" r="5.67"/><circle class="cls-1" cx="495.53" cy="444.98" r="5.67"/><circle class="cls-1" cx="467.19" cy="444.98" r="5.67"/><circle class="cls-1" cx="750.65" cy="444.98" r="5.67"/><circle class="cls-1" cx="750.65" cy="416.64" r="5.67"/><circle class="cls-1" cx="722.31" cy="444.98" r="5.67"/><circle class="cls-1" cx="722.31" cy="416.64" r="5.67"/><circle class="cls-1" cx="693.96" cy="444.98" r="5.67"/><circle class="cls-1" cx="693.96" cy="416.64" r="5.67"/><circle class="cls-1" cx="779" cy="444.98" r="5.67"/><circle class="cls-1" cx="779" cy="416.64" r="5.67"/><circle class="cls-1" cx="665.61" cy="444.98" r="5.67"/><circle class="cls-1" cx="665.61" cy="416.64" r="5.67"/><circle class="cls-1" cx="637.27" cy="444.98" r="5.67"/><circle class="cls-1" cx="637.27" cy="416.64" r="5.67"/><circle class="cls-1" cx="240.42" cy="501.68" r="5.67"/><circle class="cls-1" cx="240.42" cy="473.33" r="5.67"/><circle class="cls-1" cx="212.07" cy="501.68" r="5.67"/><circle class="cls-1" cx="212.07" cy="473.33" r="5.67"/><circle class="cls-1" cx="183.72" cy="501.68" r="5.67"/><circle class="cls-1" cx="183.72" cy="473.33" r="5.67"/><circle class="cls-1" cx="268.76" cy="501.68" r="5.67"/><circle class="cls-1" cx="268.76" cy="473.33" r="5.67"/><circle class="cls-1" cx="155.38" cy="501.68" r="5.67"/><circle class="cls-1" cx="155.38" cy="473.33" r="5.67"/><circle class="cls-1" cx="127.03" cy="501.68" r="5.67"/><circle class="cls-1" cx="127.03" cy="473.33" r="5.67"/><circle class="cls-1" cx="98.68" cy="473.33" r="5.67"/><circle class="cls-1" cx="410.49" cy="501.68" r="5.67"/><circle class="cls-1" cx="410.49" cy="473.33" r="5.67"/><circle class="cls-1" cx="382.15" cy="501.68" r="5.67"/><circle class="cls-1" cx="382.15" cy="473.33" r="5.67"/><circle class="cls-1" cx="353.8" cy="501.68" r="5.67"/><circle class="cls-1" cx="353.8" cy="473.33" r="5.67"/><circle class="cls-1" cx="438.84" cy="501.68" r="5.67"/><circle class="cls-1" cx="438.84" cy="473.33" r="5.67"/><circle class="cls-1" cx="325.46" cy="501.68" r="5.67"/><circle class="cls-1" cx="325.46" cy="473.33" r="5.67"/><circle class="cls-1" cx="297.11" cy="501.68" r="5.67"/><circle class="cls-1" cx="297.11" cy="473.33" r="5.67"/><circle class="cls-1" cx="268.76" cy="67.39" r="5.67"/><circle class="cls-1" cx="325.46" cy="67.39" r="5.67"/><circle class="cls-1" cx="325.46" cy="39.04" r="5.67"/><circle class="cls-1" cx="297.11" cy="67.39" r="5.67"/><circle class="cls-1" cx="240.42" cy="95.74" r="5.67"/><circle class="cls-1" cx="268.76" cy="95.74" r="5.67"/><circle class="cls-1" cx="325.46" cy="95.74" r="5.67"/><circle class="cls-1" cx="297.11" cy="95.74" r="5.67"/><circle class="cls-1" cx="608.92" cy="67.39" r="5.67"/><circle class="cls-1" cx="580.57" cy="67.39" r="5.67"/><circle class="cls-1" cx="552.23" cy="67.39" r="5.67"/><circle class="cls-1" cx="325.46" cy="53.22" r="5.67"/><circle class="cls-1" cx="297.11" cy="53.22" r="5.67"/><circle class="cls-1" cx="580.57" cy="53.22" r="5.67"/><circle class="cls-1" cx="552.23" cy="53.22" r="5.67"/><circle class="cls-1" cx="552.23" cy="39.04" r="5.67"/><circle class="cls-1" cx="637.27" cy="95.74" r="5.67"/><circle class="cls-1" cx="608.92" cy="95.74" r="5.67"/><circle class="cls-1" cx="580.57" cy="95.74" r="5.67"/><circle class="cls-1" cx="552.23" cy="95.74" r="5.67"/><circle class="cls-1" cx="240.42" cy="81.56" r="5.67"/><circle class="cls-1" cx="268.76" cy="81.56" r="5.67"/><circle class="cls-1" cx="325.46" cy="81.56" r="5.67"/><circle class="cls-1" cx="297.11" cy="81.56" r="5.67"/><circle class="cls-1" cx="637.27" cy="81.56" r="5.67"/><circle class="cls-1" cx="608.92" cy="81.56" r="5.67"/><circle class="cls-1" cx="580.57" cy="81.56" r="5.67"/><circle class="cls-1" cx="552.23" cy="81.56" r="5.67"/><circle class="cls-1" cx="580.57" cy="501.68" r="5.67"/><circle class="cls-1" cx="580.57" cy="473.33" r="5.67"/><circle class="cls-1" cx="552.23" cy="501.68" r="5.67"/><circle class="cls-1" cx="552.23" cy="473.33" r="5.67"/><circle class="cls-1" cx="523.88" cy="501.68" r="5.67"/><circle class="cls-1" cx="523.88" cy="473.33" r="5.67"/><circle class="cls-1" cx="608.92" cy="501.68" r="5.67"/><circle class="cls-1" cx="608.92" cy="473.33" r="5.67"/><circle class="cls-1" cx="495.53" cy="501.68" r="5.67"/><circle class="cls-1" cx="495.53" cy="473.33" r="5.67"/><circle class="cls-1" cx="467.19" cy="501.68" r="5.67"/><circle class="cls-1" cx="467.19" cy="473.33" r="5.67"/><circle class="cls-1" cx="750.65" cy="501.68" r="5.67"/><circle class="cls-1" cx="750.65" cy="473.33" r="5.67"/><circle class="cls-1" cx="722.31" cy="501.68" r="5.67"/><circle class="cls-1" cx="722.31" cy="473.33" r="5.67"/><circle class="cls-1" cx="693.96" cy="501.68" r="5.67"/><circle class="cls-1" cx="693.96" cy="473.33" r="5.67"/><circle class="cls-1" cx="779" cy="473.33" r="5.67"/><circle class="cls-1" cx="665.61" cy="501.68" r="5.67"/><circle class="cls-1" cx="665.61" cy="473.33" r="5.67"/><circle class="cls-1" cx="637.27" cy="501.68" r="5.67"/><circle class="cls-1" cx="637.27" cy="473.33" r="5.67"/><circle class="cls-1" cx="240.42" cy="459.16" r="5.67"/><circle class="cls-1" cx="212.07" cy="459.16" r="5.67"/><circle class="cls-1" cx="183.72" cy="459.16" r="5.67"/><circle class="cls-1" cx="268.76" cy="459.16" r="5.67"/><circle class="cls-1" cx="155.38" cy="459.16" r="5.67"/><circle class="cls-1" cx="127.03" cy="459.16" r="5.67"/><circle class="cls-1" cx="98.68" cy="459.16" r="5.67"/><circle class="cls-1" cx="410.49" cy="459.16" r="5.67"/><circle class="cls-1" cx="382.15" cy="459.16" r="5.67"/><circle class="cls-1" cx="353.8" cy="459.16" r="5.67"/><circle class="cls-1" cx="438.84" cy="459.16" r="5.67"/><circle class="cls-1" cx="325.46" cy="459.16" r="5.67"/><circle class="cls-1" cx="297.11" cy="459.16" r="5.67"/><circle class="cls-1" cx="580.57" cy="459.16" r="5.67"/><circle class="cls-1" cx="552.23" cy="459.16" r="5.67"/><circle class="cls-1" cx="523.88" cy="459.16" r="5.67"/><circle class="cls-1" cx="608.92" cy="459.16" r="5.67"/><circle class="cls-1" cx="495.53" cy="459.16" r="5.67"/><circle class="cls-1" cx="467.19" cy="459.16" r="5.67"/><circle class="cls-1" cx="750.65" cy="459.16" r="5.67"/><circle class="cls-1" cx="722.31" cy="459.16" r="5.67"/><circle class="cls-1" cx="693.96" cy="459.16" r="5.67"/><circle class="cls-1" cx="779" cy="459.16" r="5.67"/><circle class="cls-1" cx="665.61" cy="459.16" r="5.67"/><circle class="cls-1" cx="637.27" cy="459.16" r="5.67"/><circle class="cls-1" cx="240.42" cy="487.5" r="5.67"/><circle class="cls-1" cx="212.07" cy="487.5" r="5.67"/><circle class="cls-1" cx="183.72" cy="487.5" r="5.67"/><circle class="cls-1" cx="268.76" cy="487.5" r="5.67"/><circle class="cls-1" cx="155.38" cy="487.5" r="5.67"/><circle class="cls-1" cx="127.03" cy="487.5" r="5.67"/><circle class="cls-1" cx="98.68" cy="487.5" r="5.67"/><circle class="cls-1" cx="410.49" cy="487.5" r="5.67"/><circle class="cls-1" cx="382.15" cy="487.5" r="5.67"/><circle class="cls-1" cx="353.8" cy="487.5" r="5.67"/><circle class="cls-1" cx="438.84" cy="487.5" r="5.67"/><circle class="cls-1" cx="325.46" cy="487.5" r="5.67"/><circle class="cls-1" cx="297.11" cy="487.5" r="5.67"/><circle class="cls-1" cx="580.57" cy="487.5" r="5.67"/><circle class="cls-1" cx="552.23" cy="487.5" r="5.67"/><circle class="cls-1" cx="523.88" cy="487.5" r="5.67"/><circle class="cls-1" cx="608.92" cy="487.5" r="5.67"/><circle class="cls-1" cx="495.53" cy="487.5" r="5.67"/><circle class="cls-1" cx="467.19" cy="487.5" r="5.67"/><circle class="cls-1" cx="750.65" cy="487.5" r="5.67"/><circle class="cls-1" cx="722.31" cy="487.5" r="5.67"/><circle class="cls-1" cx="693.96" cy="487.5" r="5.67"/><circle class="cls-1" cx="779" cy="487.5" r="5.67"/><circle class="cls-1" cx="665.61" cy="487.5" r="5.67"/><circle class="cls-1" cx="637.27" cy="487.5" r="5.67"/><circle class="cls-1" cx="240.42" cy="558.37" r="5.67"/><circle class="cls-1" cx="240.42" cy="530.02" r="5.67"/><circle class="cls-1" cx="212.07" cy="558.37" r="5.67"/><circle class="cls-1" cx="212.07" cy="530.02" r="5.67"/><circle class="cls-1" cx="183.72" cy="558.37" r="5.67"/><circle class="cls-1" cx="183.72" cy="530.02" r="5.67"/><circle class="cls-1" cx="268.76" cy="558.37" r="5.67"/><circle class="cls-1" cx="268.76" cy="530.02" r="5.67"/><circle class="cls-1" cx="155.38" cy="558.37" r="5.67"/><circle class="cls-1" cx="155.38" cy="530.02" r="5.67"/><circle class="cls-1" cx="127.03" cy="530.02" r="5.67"/><circle class="cls-1" cx="410.49" cy="558.37" r="5.67"/><circle class="cls-1" cx="410.49" cy="530.02" r="5.67"/><circle class="cls-1" cx="382.15" cy="558.37" r="5.67"/><circle class="cls-1" cx="382.15" cy="530.02" r="5.67"/><circle class="cls-1" cx="353.8" cy="558.37" r="5.67"/><circle class="cls-1" cx="353.8" cy="530.02" r="5.67"/><circle class="cls-1" cx="438.84" cy="558.37" r="5.67"/><circle class="cls-1" cx="438.84" cy="530.02" r="5.67"/><circle class="cls-1" cx="325.46" cy="558.37" r="5.67"/><circle class="cls-1" cx="325.46" cy="530.02" r="5.67"/><circle class="cls-1" cx="297.11" cy="558.37" r="5.67"/><circle class="cls-1" cx="297.11" cy="530.02" r="5.67"/><circle class="cls-1" cx="580.57" cy="558.37" r="5.67"/><circle class="cls-1" cx="580.57" cy="530.02" r="5.67"/><circle class="cls-1" cx="552.23" cy="558.37" r="5.67"/><circle class="cls-1" cx="552.23" cy="530.02" r="5.67"/><circle class="cls-1" cx="523.88" cy="558.37" r="5.67"/><circle class="cls-1" cx="523.88" cy="530.02" r="5.67"/><circle class="cls-1" cx="608.92" cy="558.37" r="5.67"/><circle class="cls-1" cx="608.92" cy="530.02" r="5.67"/><circle class="cls-1" cx="495.53" cy="558.37" r="5.67"/><circle class="cls-1" cx="495.53" cy="530.02" r="5.67"/><circle class="cls-1" cx="467.19" cy="558.37" r="5.67"/><circle class="cls-1" cx="467.19" cy="530.02" r="5.67"/><circle class="cls-1" cx="750.65" cy="530.02" r="5.67"/><circle class="cls-1" cx="722.31" cy="558.37" r="5.67"/><circle class="cls-1" cx="722.31" cy="530.02" r="5.67"/><circle class="cls-1" cx="693.96" cy="558.37" r="5.67"/><circle class="cls-1" cx="693.96" cy="530.02" r="5.67"/><circle class="cls-1" cx="665.61" cy="558.37" r="5.67"/><circle class="cls-1" cx="665.61" cy="530.02" r="5.67"/><circle class="cls-1" cx="637.27" cy="558.37" r="5.67"/><circle class="cls-1" cx="637.27" cy="530.02" r="5.67"/><circle class="cls-1" cx="240.42" cy="544.2" r="5.67"/><circle class="cls-1" cx="212.07" cy="544.2" r="5.67"/><circle class="cls-1" cx="183.72" cy="544.2" r="5.67"/><circle class="cls-1" cx="268.76" cy="544.2" r="5.67"/><circle class="cls-1" cx="155.38" cy="544.2" r="5.67"/><circle class="cls-1" cx="127.03" cy="544.2" r="5.67"/><circle class="cls-1" cx="410.49" cy="544.2" r="5.67"/><circle class="cls-1" cx="382.15" cy="544.2" r="5.67"/><circle class="cls-1" cx="353.8" cy="544.2" r="5.67"/><circle class="cls-1" cx="438.84" cy="544.2" r="5.67"/><circle class="cls-1" cx="325.46" cy="544.2" r="5.67"/><circle class="cls-1" cx="297.11" cy="544.2" r="5.67"/><circle class="cls-1" cx="580.57" cy="544.2" r="5.67"/><circle class="cls-1" cx="552.23" cy="544.2" r="5.67"/><circle class="cls-1" cx="523.88" cy="544.2" r="5.67"/><circle class="cls-1" cx="608.92" cy="544.2" r="5.67"/><circle class="cls-1" cx="495.53" cy="544.2" r="5.67"/><circle class="cls-1" cx="467.19" cy="544.2" r="5.67"/><circle class="cls-1" cx="750.65" cy="544.2" r="5.67"/><circle class="cls-1" cx="722.31" cy="544.2" r="5.67"/><circle class="cls-1" cx="693.96" cy="544.2" r="5.67"/><circle class="cls-1" cx="665.61" cy="544.2" r="5.67"/><circle class="cls-1" cx="637.27" cy="544.2" r="5.67"/><circle class="cls-1" cx="240.42" cy="515.85" r="5.67"/><circle class="cls-1" cx="212.07" cy="515.85" r="5.67"/><circle class="cls-1" cx="183.72" cy="515.85" r="5.67"/><circle class="cls-1" cx="268.76" cy="515.85" r="5.67"/><circle class="cls-1" cx="155.38" cy="515.85" r="5.67"/><circle class="cls-1" cx="127.03" cy="515.85" r="5.67"/><circle class="cls-1" cx="410.49" cy="515.85" r="5.67"/><circle class="cls-1" cx="382.15" cy="515.85" r="5.67"/><circle class="cls-1" cx="353.8" cy="515.85" r="5.67"/><circle class="cls-1" cx="438.84" cy="515.85" r="5.67"/><circle class="cls-1" cx="325.46" cy="515.85" r="5.67"/><circle class="cls-1" cx="297.11" cy="515.85" r="5.67"/><circle class="cls-1" cx="580.57" cy="515.85" r="5.67"/><circle class="cls-1" cx="552.23" cy="515.85" r="5.67"/><circle class="cls-1" cx="523.88" cy="515.85" r="5.67"/><circle class="cls-1" cx="608.92" cy="515.85" r="5.67"/><circle class="cls-1" cx="495.53" cy="515.85" r="5.67"/><circle class="cls-1" cx="467.19" cy="515.85" r="5.67"/><circle class="cls-1" cx="750.65" cy="515.85" r="5.67"/><circle class="cls-1" cx="722.31" cy="515.85" r="5.67"/><circle class="cls-1" cx="693.96" cy="515.85" r="5.67"/><circle class="cls-1" cx="665.61" cy="515.85" r="5.67"/><circle class="cls-1" cx="637.27" cy="515.85" r="5.67"/><circle class="cls-1" cx="240.42" cy="615.06" r="5.67"/><circle class="cls-1" cx="240.42" cy="586.72" r="5.67"/><circle class="cls-1" cx="212.07" cy="615.06" r="5.67"/><circle class="cls-1" cx="212.07" cy="586.72" r="5.67"/><circle class="cls-1" cx="183.72" cy="615.06" r="5.67"/><circle class="cls-1" cx="183.72" cy="586.72" r="5.67"/><circle class="cls-1" cx="268.76" cy="615.06" r="5.67"/><circle class="cls-1" cx="268.76" cy="586.72" r="5.67"/><circle class="cls-1" cx="155.38" cy="586.72" r="5.67"/><circle class="cls-1" cx="410.49" cy="615.06" r="5.67"/><circle class="cls-1" cx="410.49" cy="586.72" r="5.67"/><circle class="cls-1" cx="382.15" cy="615.06" r="5.67"/><circle class="cls-1" cx="382.15" cy="586.72" r="5.67"/><circle class="cls-1" cx="353.8" cy="615.06" r="5.67"/><circle class="cls-1" cx="353.8" cy="586.72" r="5.67"/><circle class="cls-1" cx="438.84" cy="615.06" r="5.67"/><circle class="cls-1" cx="438.84" cy="586.72" r="5.67"/><circle class="cls-1" cx="325.46" cy="615.06" r="5.67"/><circle class="cls-1" cx="325.46" cy="586.72" r="5.67"/><circle class="cls-1" cx="297.11" cy="615.06" r="5.67"/><circle class="cls-1" cx="297.11" cy="586.72" r="5.67"/><circle class="cls-1" cx="580.57" cy="615.06" r="5.67"/><circle class="cls-1" cx="580.57" cy="586.72" r="5.67"/><circle class="cls-1" cx="552.23" cy="615.06" r="5.67"/><circle class="cls-1" cx="552.23" cy="586.72" r="5.67"/><circle class="cls-1" cx="523.88" cy="615.06" r="5.67"/><circle class="cls-1" cx="523.88" cy="586.72" r="5.67"/><circle class="cls-1" cx="608.92" cy="615.06" r="5.67"/><circle class="cls-1" cx="608.92" cy="586.72" r="5.67"/><circle class="cls-1" cx="495.53" cy="615.06" r="5.67"/><circle class="cls-1" cx="495.53" cy="586.72" r="5.67"/><circle class="cls-1" cx="467.19" cy="615.06" r="5.67"/><circle class="cls-1" cx="467.19" cy="586.72" r="5.67"/><circle class="cls-1" cx="722.31" cy="586.72" r="5.67"/><circle class="cls-1" cx="693.96" cy="615.06" r="5.67"/><circle class="cls-1" cx="693.96" cy="586.72" r="5.67"/><circle class="cls-1" cx="665.61" cy="615.06" r="5.67"/><circle class="cls-1" cx="665.61" cy="586.72" r="5.67"/><circle class="cls-1" cx="637.27" cy="615.06" r="5.67"/><circle class="cls-1" cx="240.42" cy="600.89" r="5.67"/><circle class="cls-1" cx="212.07" cy="600.89" r="5.67"/><circle class="cls-1" cx="183.72" cy="600.89" r="5.67"/><circle class="cls-1" cx="268.76" cy="600.89" r="5.67"/><circle class="cls-1" cx="410.49" cy="600.89" r="5.67"/><circle class="cls-1" cx="382.15" cy="600.89" r="5.67"/><circle class="cls-1" cx="353.8" cy="600.89" r="5.67"/><circle class="cls-1" cx="438.84" cy="600.89" r="5.67"/><circle class="cls-1" cx="325.46" cy="600.89" r="5.67"/><circle class="cls-1" cx="297.11" cy="600.89" r="5.67"/><circle class="cls-1" cx="580.57" cy="600.89" r="5.67"/><circle class="cls-1" cx="552.23" cy="600.89" r="5.67"/><circle class="cls-1" cx="523.88" cy="600.89" r="5.67"/><circle class="cls-1" cx="608.92" cy="600.89" r="5.67"/><circle class="cls-1" cx="495.53" cy="600.89" r="5.67"/><circle class="cls-1" cx="467.19" cy="600.89" r="5.67"/><circle class="cls-1" cx="693.96" cy="600.89" r="5.67"/><circle class="cls-1" cx="665.61" cy="600.89" r="5.67"/><circle class="cls-1" cx="637.27" cy="600.89" r="5.67"/><circle class="cls-1" cx="637.27" cy="586.72" r="5.67"/><circle class="cls-1" cx="226.24" cy="572.54" r="5.67"/><circle class="cls-1" cx="197.9" cy="572.54" r="5.67"/><circle class="cls-1" cx="169.55" cy="572.54" r="5.67"/><circle class="cls-1" cx="254.59" cy="572.54" r="5.67"/><circle class="cls-1" cx="396.32" cy="572.54" r="5.67"/><circle class="cls-1" cx="367.97" cy="572.54" r="5.67"/><circle class="cls-1" cx="339.63" cy="572.54" r="5.67"/><circle class="cls-1" cx="424.67" cy="572.54" r="5.67"/><circle class="cls-1" cx="311.28" cy="572.54" r="5.67"/><circle class="cls-1" cx="282.94" cy="572.54" r="5.67"/><circle class="cls-1" cx="566.4" cy="572.54" r="5.67"/><circle class="cls-1" cx="538.05" cy="572.54" r="5.67"/><circle class="cls-1" cx="509.71" cy="572.54" r="5.67"/><circle class="cls-1" cx="594.75" cy="572.54" r="5.67"/><circle class="cls-1" cx="481.36" cy="572.54" r="5.67"/><circle class="cls-1" cx="453.01" cy="572.54" r="5.67"/><circle class="cls-1" cx="708.13" cy="572.54" r="5.67"/><circle class="cls-1" cx="679.79" cy="572.54" r="5.67"/><circle class="cls-1" cx="651.44" cy="572.54" r="5.67"/><circle class="cls-1" cx="623.09" cy="572.54" r="5.67"/><circle class="cls-1" cx="240.42" cy="671.76" r="5.67"/><circle class="cls-1" cx="240.42" cy="643.41" r="5.67"/><circle class="cls-1" cx="212.07" cy="643.41" r="5.67"/><circle class="cls-1" cx="268.76" cy="671.76" r="5.67"/><circle class="cls-1" cx="268.76" cy="643.41" r="5.67"/><circle class="cls-1" cx="382.15" cy="671.76" r="5.67"/><circle class="cls-1" cx="353.8" cy="671.76" r="5.67"/><circle class="cls-1" cx="353.8" cy="643.41" r="5.67"/><circle class="cls-1" cx="325.46" cy="671.76" r="5.67"/><circle class="cls-1" cx="325.46" cy="643.41" r="5.67"/><circle class="cls-1" cx="297.11" cy="671.76" r="5.67"/><circle class="cls-1" cx="297.11" cy="643.41" r="5.67"/><circle class="cls-1" cx="226.24" cy="629.24" r="5.67"/><circle class="cls-1" cx="197.9" cy="629.24" r="5.67"/><circle class="cls-1" cx="254.59" cy="629.24" r="5.67"/><circle class="cls-1" cx="339.63" cy="629.24" r="5.67"/><circle class="cls-1" cx="311.28" cy="629.24" r="5.67"/><circle class="cls-1" cx="282.94" cy="629.24" r="5.67"/><circle class="cls-1" cx="566.4" cy="629.24" r="5.67"/><circle class="cls-1" cx="538.05" cy="629.24" r="5.67"/><circle class="cls-1" cx="594.75" cy="629.24" r="5.67"/><circle class="cls-1" cx="679.79" cy="629.24" r="5.67"/><circle class="cls-1" cx="651.44" cy="629.24" r="5.67"/><circle class="cls-1" cx="623.09" cy="629.24" r="5.67"/><circle class="cls-1" cx="538.05" cy="657.58" r="5.67"/><circle class="cls-1" cx="509.71" cy="657.58" r="5.67"/><circle class="cls-1" cx="566.4" cy="657.58" r="5.67"/><circle class="cls-1" cx="651.44" cy="657.58" r="5.67"/><circle class="cls-1" cx="623.09" cy="657.58" r="5.67"/><circle class="cls-1" cx="594.75" cy="657.58" r="5.67"/><circle class="cls-1" cx="254.59" cy="657.58" r="5.67"/><circle class="cls-1" cx="226.24" cy="657.58" r="5.67"/><circle class="cls-1" cx="282.94" cy="657.58" r="5.67"/><circle class="cls-1" cx="367.97" cy="657.58" r="5.67"/><circle class="cls-1" cx="339.63" cy="657.58" r="5.67"/><circle class="cls-1" cx="311.28" cy="657.58" r="5.67"/><circle class="cls-1" cx="282.94" cy="685.93" r="5.67"/><circle class="cls-1" cx="254.59" cy="685.93" r="5.67"/><circle class="cls-1" cx="311.28" cy="685.93" r="5.67"/><circle class="cls-1" cx="396.32" cy="685.93" r="5.67"/><circle class="cls-1" cx="367.97" cy="685.93" r="5.67"/><circle class="cls-1" cx="339.63" cy="685.93" r="5.67"/><circle class="cls-1" cx="509.71" cy="685.93" r="5.67"/><circle class="cls-1" cx="481.36" cy="685.93" r="5.67"/><circle class="cls-1" cx="538.05" cy="685.93" r="5.67"/><circle class="cls-1" cx="623.09" cy="685.93" r="5.67"/><circle class="cls-1" cx="594.75" cy="685.93" r="5.67"/><circle class="cls-1" cx="566.4" cy="685.93" r="5.67"/><circle class="cls-1" cx="580.57" cy="671.76" r="5.67"/><circle class="cls-1" cx="580.57" cy="643.41" r="5.67"/><circle class="cls-1" cx="552.23" cy="671.76" r="5.67"/><circle class="cls-1" cx="552.23" cy="643.41" r="5.67"/><circle class="cls-1" cx="523.88" cy="671.76" r="5.67"/><circle class="cls-1" cx="523.88" cy="643.41" r="5.67"/><circle class="cls-1" cx="608.92" cy="671.76" r="5.67"/><circle class="cls-1" cx="608.92" cy="643.41" r="5.67"/><circle class="cls-1" cx="495.53" cy="671.76" r="5.67"/><circle class="cls-1" cx="665.61" cy="643.41" r="5.67"/><circle class="cls-1" cx="637.27" cy="671.76" r="5.67"/><circle class="cls-1" cx="580.57" cy="714.28" r="5.67"/><circle class="cls-1" cx="552.23" cy="714.28" r="5.67"/><circle class="cls-1" cx="523.88" cy="714.28" r="5.67"/><circle class="cls-1" cx="495.53" cy="714.28" r="5.67"/><circle class="cls-1" cx="325.46" cy="714.28" r="5.67"/><circle class="cls-1" cx="297.11" cy="714.28" r="5.67"/><circle class="cls-1" cx="353.8" cy="714.28" r="5.67"/><circle class="cls-1" cx="382.15" cy="714.28" r="5.67"/><circle class="cls-1" cx="637.27" cy="643.41" r="5.67"/><circle class="cls-1" cx="410.49" cy="728.45" r="5.67"/><circle class="cls-1" cx="382.15" cy="728.45" r="5.67"/><circle class="cls-1" cx="353.8" cy="700.1" r="5.67"/><circle class="cls-1" cx="438.84" cy="728.45" r="5.67"/><circle class="cls-1" cx="325.46" cy="700.1" r="5.67"/><circle class="cls-1" cx="297.11" cy="700.1" r="5.67"/><circle class="cls-1" cx="580.57" cy="700.1" r="5.67"/><circle class="cls-1" cx="552.23" cy="700.1" r="5.67"/><circle class="cls-1" cx="523.88" cy="700.1" r="5.67"/><circle class="cls-1" cx="495.53" cy="728.45" r="5.67"/><circle class="cls-1" cx="467.19" cy="728.45" r="5.67"/><circle class="cls-1" cx="258.84" cy="246.26" r="5.67"/><circle class="cls-1" cx="298.52" cy="246.26" r="5.67"/><circle class="cls-1" cx="298.52" cy="200.9" r="5.67"/><circle class="cls-1" cx="258.84" cy="200.9" r="5.67"/><circle class="cls-1" cx="618.85" cy="246.26" r="5.67"/><circle class="cls-1" cx="579.16" cy="246.26" r="5.67"/><circle class="cls-1" cx="579.16" cy="200.9" r="5.67"/><circle class="cls-1" cx="618.85" cy="200.9" r="5.67"/><path class="cls-1" d="M616.7,371V158.39h43.78a9.71,9.71,0,0,0,6.59-16.85,378.05,378.05,0,0,0-512.14,0,9.71,9.71,0,0,0,6.59,16.85H205.3V371H78.64A45.72,45.72,0,0,0,33,416.38c0,1.05,0,2.1,0,3.15a377.35,377.35,0,0,0,374.15,378.2c210.6,2.13,382-167.94,382-378,0-1.1,0-2.2,0-3.3A45.72,45.72,0,0,0,743.36,371Z" transform="translate(27.84 -41.11)"/></svg>