<svg id="Layer_1" data-name="Layer 1" xmlns="http://www.w3.org/2000/svg" viewBox="0 0 757.14 757.14"><defs><style>.cls-1{fill:none;stroke:#231f20;stroke-miterlimit:10;}</style></defs><title>roboCarUpper</title><circle class="cls-1" cx="378.57" cy="378.57" r="378.07"/><rect class="cls-1" x="365.81" y="649.07" width="25.51" height="39.69"/><circle class="cls-1" cx="338.88" cy="637.73" r="5.67"/><circle class="cls-1" cx="418.25" cy="637.73" r="5.67"/><circle class="cls-1" cx="338.88" cy="700.09" r="5.67"/><circle class="cls-1" cx="418.25" cy="700.09" r="5.67"/><circle class="cls-1" cx="378.57" cy="146.16" r="34.26"/><circle class="cls-1" cx="137.62" cy="374.83" r="34.26"/><circle class="cls-1" cx="619.51" cy="374.83" r="34.26"/><circle class="cls-1" cx="327.54" cy="291.91" r="5.67"/><circle class="cls-1" cx="429.59" cy="291.91" r="5.67"/><circle class="cls-1" cx="327.54" cy="393.96" r="5.67"/><circle class="cls-1" cx="429.59" cy="393.96" r="5.67"/><rect class="cls-1" x="287.86" y="58.34" width="181.42" height="23.81" rx="10"/><circle class="cls-1" cx="435.26" cy="39.04" r="5.67"/><circle class="cls-1" cx="406.91" cy="39.04" r="5.67"/><circle class="cls-1" cx="378.57" cy="39.04" r="5.67"/><circle class="cls-1" cx="463.61" cy="39.04" r="5.67"/><circle class="cls-1" cx="350.22" cy="39.04" r="5.67"/><circle class="cls-1" cx="321.88" cy="39.04" r="5.67"/><circle class="cls-1" cx="293.53" cy="39.04" r="5.67"/><circle class="cls-1" cx="180.14" cy="388.29" r="5.67"/><circle class="cls-1" cx="180.14" cy="359.94" r="5.67"/><circle class="cls-1" cx="208.49" cy="388.29" r="5.67"/><circle class="cls-1" cx="208.49" cy="359.94" r="5.67"/><circle class="cls-1" cx="95.1" cy="388.29" r="5.67"/><circle class="cls-1" cx="95.1" cy="359.94" r="5.67"/><circle class="cls-1" cx="66.76" cy="388.29" r="5.67"/><circle class="cls-1" cx="66.76" cy="359.94" r="5.67"/><circle class="cls-1" cx="38.41" cy="388.29" r="5.67"/><circle class="cls-1" cx="38.41" cy="359.94" r="5.67"/><circle class="cls-1" cx="350.22" cy="388.29" r="5.67"/><circle class="cls-1" cx="350.22" cy="359.94" r="5.67"/><circle class="cls-1" cx="321.88" cy="359.94" r="5.67"/><circle class="cls-1" cx="293.53" cy="388.29" r="5.67"/><circle class="cls-1" cx="293.53" cy="359.94" r="5.67"/><circle class="cls-1" cx="378.57" cy="388.29" r="5.67"/><circle class="cls-1" cx="378.57" cy="359.94" r="5.67"/><circle class="cls-1" cx="265.18" cy="388.29" r="5.67"/><circle class="cls-1" cx="265.18" cy="359.94" r="5.67"/><circle class="cls-1" cx="236.84" cy="388.29" r="5.67"/><circle class="cls-1" cx="236.84" cy="359.94" r="5.67"/><circle class="cls-1" cx="520.3" cy="388.29" r="5.67"/><circle class="cls-1" cx="520.3" cy="359.94" r="5.67"/><circle class="cls-1" cx="491.95" cy="388.29" r="5.67"/><circle class="cls-1" cx="491.95" cy="359.94" r="5.67"/><circle class="cls-1" cx="463.61" cy="388.29" r="5.67"/><circle class="cls-1" cx="463.61" cy="359.94" r="5.67"/><circle class="cls-1" cx="548.65" cy="388.29" r="5.67"/><circle class="cls-1" cx="548.65" cy="359.94" r="5.67"/><circle class="cls-1" cx="435.26" cy="359.94" r="5.67"/><circle class="cls-1" cx="406.91" cy="388.29" r="5.67"/><circle class="cls-1" cx="406.91" cy="359.94" r="5.67"/><circle class="cls-1" cx="690.38" cy="388.29" r="5.67"/><circle class="cls-1" cx="690.38" cy="359.94" r="5.67"/><circle class="cls-1" cx="662.03" cy="388.29" r="5.67"/><circle class="cls-1" cx="662.03" cy="359.94" r="5.67"/><circle class="cls-1" cx="718.73" cy="388.29" r="5.67"/><circle class="cls-1" cx="718.73" cy="359.94" r="5.67"/><circle class="cls-1" cx="576.99" cy="388.29" r="5.67"/><circle class="cls-1" cx="576.99" cy="359.94" r="5.67"/><circle class="cls-1" cx="180.14" cy="444.98" r="5.67"/><circle class="cls-1" cx="180.14" cy="416.64" r="5.67"/><circle class="cls-1" cx="151.8" cy="444.98" r="5.67"/><circle class="cls-1" cx="151.8" cy="416.64" r="5.67"/><circle class="cls-1" cx="123.45" cy="444.98" r="5.67"/><circle class="cls-1" cx="123.45" cy="416.64" r="5.67"/><circle class="cls-1" cx="208.49" cy="444.98" r="5.67"/><circle class="cls-1" cx="208.49" cy="416.64" r="5.67"/><circle class="cls-1" cx="95.1" cy="444.98" r="5.67"/><circle class="cls-1" cx="95.1" cy="416.64" r="5.67"/><circle class="cls-1" cx="66.76" cy="444.98" r="5.67"/><circle class="cls-1" cx="66.76" cy="416.64" r="5.67"/><circle class="cls-1" cx="38.41" cy="444.98" r="5.67"/><circle class="cls-1" cx="38.41" cy="416.64" r="5.67"/><circle class="cls-1" cx="350.22" cy="444.98" r="5.67"/><circle class="cls-1" cx="350.22" cy="416.64" r="5.67"/><circle class="cls-1" cx="321.88" cy="444.98" r="5.67"/><circle class="cls-1" cx="321.88" cy="416.64" r="5.67"/><circle class="cls-1" cx="293.53" cy="444.98" r="5.67"/><circle class="cls-1" cx="293.53" cy="416.64" r="5.67"/><circle class="cls-1" cx="378.57" cy="444.98" r="5.67"/><circle class="cls-1" cx="378.57" cy="416.64" r="5.67"/><circle class="cls-1" cx="265.18" cy="444.98" r="5.67"/><circle class="cls-1" cx="265.18" cy="416.64" r="5.67"/><circle class="cls-1" cx="236.84" cy="444.98" r="5.67"/><circle class="cls-1" cx="236.84" cy="416.64" r="5.67"/><circle class="cls-1" cx="520.3" cy="444.98" r="5.67"/><circle class="cls-1" cx="520.3" cy="416.64" r="5.67"/><circle class="cls-1" cx="491.95" cy="444.98" r="5.67"/><circle class="cls-1" cx="491.95" cy="416.64" r="5.67"/><circle class="cls-1" cx="463.61" cy="444.98" r="5.67"/><circle class="cls-1" cx="463.61" cy="416.64" r="5.67"/><circle class="cls-1" cx="548.65" cy="444.98" r="5.67"/><circle class="cls-1" cx="548.65" cy="416.64" r="5.67"/><circle class="cls-1" cx="435.26" cy="444.98" r="5.67"/><circle class="cls-1" cx="435.26" cy="416.64" r="5.67"/><circle class="cls-1" cx="406.91" cy="444.98" r="5.67"/><circle class="cls-1" cx="406.91" cy="416.64" r="5.67"/><circle class="cls-1" cx="690.38" cy="444.98" r="5.67"/><circle class="cls-1" cx="690.38" cy="416.64" r="5.67"/><circle class="cls-1" cx="662.03" cy="444.98" r="5.67"/><circle class="cls-1" cx="662.03" cy="416.64" r="5.67"/><circle class="cls-1" cx="633.69" cy="444.98" r="5.67"/><circle class="cls-1" cx="633.69" cy="416.64" r="5.67"/><circle class="cls-1" cx="718.73" cy="444.98" r="5.67"/><circle class="cls-1" cx="718.73" cy="416.64" r="5.67"/><circle class="cls-1" cx="605.34" cy="444.98" r="5.67"/><circle class="cls-1" cx="605.34" cy="416.64" r="5.67"/><circle class="cls-1" cx="576.99" cy="444.98" r="5.67"/><circle class="cls-1" cx="576.99" cy="416.64" r="5.67"/><circle class="cls-1" cx="180.14" cy="430.81" r="5.67"/><circle class="cls-1" cx="151.8" cy="430.81" r="5.67"/><circle class="cls-1" cx="123.45" cy="430.81" r="5.67"/><circle class="cls-1" cx="208.49" cy="430.81" r="5.67"/><circle class="cls-1" cx="95.1" cy="430.81" r="5.67"/><circle class="cls-1" cx="66.76" cy="430.81" r="5.67"/><circle class="cls-1" cx="38.41" cy="430.81" r="5.67"/><circle class="cls-1" cx="350.22" cy="430.81" r="5.67"/><circle class="cls-1" cx="321.88" cy="430.81" r="5.67"/><circle class="cls-1" cx="293.53" cy="430.81" r="5.67"/><circle class="cls-1" cx="378.57" cy="430.81" r="5.67"/><circle class="cls-1" cx="265.18" cy="430.81" r="5.67"/><circle class="cls-1" cx="236.84" cy="430.81" r="5.67"/><circle class="cls-1" cx="520.3" cy="430.81" r="5.67"/><circle class="cls-1" cx="491.95" cy="430.81" r="5.67"/><circle class="cls-1" cx="463.61" cy="430.81" r="5.67"/><circle class="cls-1" cx="548.65" cy="430.81" r="5.67"/><circle class="cls-1" cx="435.26" cy="430.81" r="5.67"/><circle class="cls-1" cx="406.91" cy="430.81" r="5.67"/><circle class="cls-1" cx="690.38" cy="430.81" r="5.67"/><circle class="cls-1" cx="662.03" cy="430.81" r="5.67"/><circle class="cls-1" cx="633.69" cy="430.81" r="5.67"/><circle class="cls-1" cx="718.73" cy="430.81" r="5.67"/><circle class="cls-1" cx="605.34" cy="430.81" r="5.67"/><circle class="cls-1" cx="576.99" cy="430.81" r="5.67"/><circle class="cls-1" cx="180.14" cy="501.68" r="5.67"/><circle class="cls-1" cx="180.14" cy="473.33" r="5.67"/><circle class="cls-1" cx="151.8" cy="501.68" r="5.67"/><circle class="cls-1" cx="151.8" cy="473.33" r="5.67"/><circle class="cls-1" cx="123.45" cy="501.68" r="5.67"/><circle class="cls-1" cx="123.45" cy="473.33" r="5.67"/><circle class="cls-1" cx="208.49" cy="501.68" r="5.67"/><circle class="cls-1" cx="208.49" cy="473.33" r="5.67"/><circle class="cls-1" cx="95.1" cy="501.68" r="5.67"/><circle class="cls-1" cx="95.1" cy="473.33" r="5.67"/><circle class="cls-1" cx="66.76" cy="501.68" r="5.67"/><circle class="cls-1" cx="66.76" cy="473.33" r="5.67"/><circle class="cls-1" cx="38.41" cy="473.33" r="5.67"/><circle class="cls-1" cx="350.22" cy="501.68" r="5.67"/><circle class="cls-1" cx="350.22" cy="473.33" r="5.67"/><circle class="cls-1" cx="321.88" cy="501.68" r="5.67"/><circle class="cls-1" cx="321.88" cy="473.33" r="5.67"/><circle class="cls-1" cx="293.53" cy="501.68" r="5.67"/><circle class="cls-1" cx="293.53" cy="473.33" r="5.67"/><circle class="cls-1" cx="378.57" cy="501.68" r="5.67"/><circle class="cls-1" cx="378.57" cy="473.33" r="5.67"/><circle class="cls-1" cx="265.18" cy="501.68" r="5.67"/><circle class="cls-1" cx="265.18" cy="473.33" r="5.67"/><circle class="cls-1" cx="236.84" cy="501.68" r="5.67"/><circle class="cls-1" cx="236.84" cy="473.33" r="5.67"/><circle class="cls-1" cx="208.49" cy="67.39" r="5.67"/><circle class="cls-1" cx="265.18" cy="67.39" r="5.67"/><circle class="cls-1" cx="265.18" cy="39.04" r="5.67"/><circle class="cls-1" cx="236.84" cy="67.39" r="5.67"/><circle class="cls-1" cx="208.49" cy="86.11" r="5.67"/><circle class="cls-1" cx="265.18" cy="86.11" r="5.67"/><circle class="cls-1" cx="236.84" cy="86.11" r="5.67"/><circle class="cls-1" cx="491.95" cy="86.11" r="5.67"/><circle class="cls-1" cx="548.65" cy="86.11" r="5.67"/><circle class="cls-1" cx="520.3" cy="86.11" r="5.67"/><circle class="cls-1" cx="548.65" cy="67.39" r="5.67"/><circle class="cls-1" cx="520.3" cy="67.39" r="5.67"/><circle class="cls-1" cx="491.95" cy="67.39" r="5.67"/><circle class="cls-1" cx="491.95" cy="39.04" r="5.67"/><circle class="cls-1" cx="520.3" cy="501.68" r="5.67"/><circle class="cls-1" cx="520.3" cy="473.33" r="5.67"/><circle class="cls-1" cx="491.95" cy="501.68" r="5.67"/><circle class="cls-1" cx="491.95" cy="473.33" r="5.67"/><circle class="cls-1" cx="463.61" cy="501.68" r="5.67"/><circle class="cls-1" cx="463.61" cy="473.33" r="5.67"/><circle class="cls-1" cx="548.65" cy="501.68" r="5.67"/><circle class="cls-1" cx="548.65" cy="473.33" r="5.67"/><circle class="cls-1" cx="435.26" cy="501.68" r="5.67"/><circle class="cls-1" cx="435.26" cy="473.33" r="5.67"/><circle class="cls-1" cx="406.91" cy="501.68" r="5.67"/><circle class="cls-1" cx="406.91" cy="473.33" r="5.67"/><circle class="cls-1" cx="690.38" cy="501.68" r="5.67"/><circle class="cls-1" cx="690.38" cy="473.33" r="5.67"/><circle class="cls-1" cx="662.03" cy="501.68" r="5.67"/><circle class="cls-1" cx="662.03" cy="473.33" r="5.67"/><circle class="cls-1" cx="633.69" cy="501.68" r="5.67"/><circle class="cls-1" cx="633.69" cy="473.33" r="5.67"/><circle class="cls-1" cx="718.73" cy="473.33" r="5.67"/><circle class="cls-1" cx="605.34" cy="501.68" r="5.67"/><circle class="cls-1" cx="605.34" cy="473.33" r="5.67"/><circle class="cls-1" cx="576.99" cy="501.68" r="5.67"/><circle class="cls-1" cx="576.99" cy="473.33" r="5.67"/><circle class="cls-1" cx="165.97" cy="459.16" r="5.67"/><circle class="cls-1" cx="137.62" cy="459.16" r="5.67"/><circle class="cls-1" cx="109.28" cy="459.16" r="5.67"/><circle class="cls-1" cx="194.32" cy="459.16" r="5.67"/><circle class="cls-1" cx="80.93" cy="459.16" r="5.67"/><circle class="cls-1" cx="52.58" cy="459.16" r="5.67"/><circle class="cls-1" cx="336.05" cy="459.16" r="5.67"/><circle class="cls-1" cx="307.7" cy="459.16" r="5.67"/><circle class="cls-1" cx="279.36" cy="459.16" r="5.67"/><circle class="cls-1" cx="364.4" cy="459.16" r="5.67"/><circle class="cls-1" cx="251.01" cy="459.16" r="5.67"/><circle class="cls-1" cx="222.66" cy="459.16" r="5.67"/><circle class="cls-1" cx="506.13" cy="459.16" r="5.67"/><circle class="cls-1" cx="477.78" cy="459.16" r="5.67"/><circle class="cls-1" cx="449.43" cy="459.16" r="5.67"/><circle class="cls-1" cx="534.47" cy="459.16" r="5.67"/><circle class="cls-1" cx="421.09" cy="459.16" r="5.67"/><circle class="cls-1" cx="392.74" cy="459.16" r="5.67"/><circle class="cls-1" cx="676.21" cy="459.16" r="5.67"/><circle class="cls-1" cx="647.86" cy="459.16" r="5.67"/><circle class="cls-1" cx="619.51" cy="459.16" r="5.67"/><circle class="cls-1" cx="704.55" cy="459.16" r="5.67"/><circle class="cls-1" cx="591.17" cy="459.16" r="5.67"/><circle class="cls-1" cx="562.82" cy="459.16" r="5.67"/><circle class="cls-1" cx="165.97" cy="487.5" r="5.67"/><circle class="cls-1" cx="137.62" cy="487.5" r="5.67"/><circle class="cls-1" cx="109.28" cy="487.5" r="5.67"/><circle class="cls-1" cx="194.32" cy="487.5" r="5.67"/><circle class="cls-1" cx="80.93" cy="487.5" r="5.67"/><circle class="cls-1" cx="52.58" cy="487.5" r="5.67"/><circle class="cls-1" cx="336.05" cy="487.5" r="5.67"/><circle class="cls-1" cx="307.7" cy="487.5" r="5.67"/><circle class="cls-1" cx="279.36" cy="487.5" r="5.67"/><circle class="cls-1" cx="364.4" cy="487.5" r="5.67"/><circle class="cls-1" cx="251.01" cy="487.5" r="5.67"/><circle class="cls-1" cx="222.66" cy="487.5" r="5.67"/><circle class="cls-1" cx="506.13" cy="487.5" r="5.67"/><circle class="cls-1" cx="477.78" cy="487.5" r="5.67"/><circle class="cls-1" cx="449.43" cy="487.5" r="5.67"/><circle class="cls-1" cx="534.47" cy="487.5" r="5.67"/><circle class="cls-1" cx="421.09" cy="487.5" r="5.67"/><circle class="cls-1" cx="392.74" cy="487.5" r="5.67"/><circle class="cls-1" cx="676.21" cy="487.5" r="5.67"/><circle class="cls-1" cx="647.86" cy="487.5" r="5.67"/><circle class="cls-1" cx="619.51" cy="487.5" r="5.67"/><circle class="cls-1" cx="704.55" cy="487.5" r="5.67"/><circle class="cls-1" cx="591.17" cy="487.5" r="5.67"/><circle class="cls-1" cx="562.82" cy="487.5" r="5.67"/><circle class="cls-1" cx="180.14" cy="558.37" r="5.67"/><circle class="cls-1" cx="180.14" cy="530.02" r="5.67"/><circle class="cls-1" cx="151.8" cy="558.37" r="5.67"/><circle class="cls-1" cx="151.8" cy="530.02" r="5.67"/><circle class="cls-1" cx="123.45" cy="558.37" r="5.67"/><circle class="cls-1" cx="123.45" cy="530.02" r="5.67"/><circle class="cls-1" cx="208.49" cy="558.37" r="5.67"/><circle class="cls-1" cx="208.49" cy="530.02" r="5.67"/><circle class="cls-1" cx="95.1" cy="558.37" r="5.67"/><circle class="cls-1" cx="95.1" cy="530.02" r="5.67"/><circle class="cls-1" cx="66.76" cy="530.02" r="5.67"/><circle class="cls-1" cx="350.22" cy="558.37" r="5.67"/><circle class="cls-1" cx="350.22" cy="530.02" r="5.67"/><circle class="cls-1" cx="321.88" cy="558.37" r="5.67"/><circle class="cls-1" cx="321.88" cy="530.02" r="5.67"/><circle class="cls-1" cx="293.53" cy="558.37" r="5.67"/><circle class="cls-1" cx="293.53" cy="530.02" r="5.67"/><circle class="cls-1" cx="378.57" cy="558.37" r="5.67"/><circle class="cls-1" cx="378.57" cy="530.02" r="5.67"/><circle class="cls-1" cx="265.18" cy="558.37" r="5.67"/><circle class="cls-1" cx="265.18" cy="530.02" r="5.67"/><circle class="cls-1" cx="236.84" cy="558.37" r="5.67"/><circle class="cls-1" cx="236.84" cy="530.02" r="5.67"/><circle class="cls-1" cx="520.3" cy="558.37" r="5.67"/><circle class="cls-1" cx="520.3" cy="530.02" r="5.67"/><circle class="cls-1" cx="491.95" cy="558.37" r="5.67"/><circle class="cls-1" cx="491.95" cy="530.02" r="5.67"/><circle class="cls-1" cx="463.61" cy="558.37" r="5.67"/><circle class="cls-1" cx="463.61" cy="530.02" r="5.67"/><circle class="cls-1" cx="548.65" cy="558.37" r="5.67"/><circle class="cls-1" cx="548.65" cy="530.02" r="5.67"/><circle class="cls-1" cx="435.26" cy="558.37" r="5.67"/><circle class="cls-1" cx="435.26" cy="530.02" r="5.67"/><circle class="cls-1" cx="406.91" cy="558.37" r="5.67"/><circle class="cls-1" cx="406.91" cy="530.02" r="5.67"/><circle class="cls-1" cx="690.38" cy="530.02" r="5.67"/><circle class="cls-1" cx="662.03" cy="558.37" r="5.67"/><circle class="cls-1" cx="662.03" cy="530.02" r="5.67"/><circle class="cls-1" cx="633.69" cy="558.37" r="5.67"/><circle class="cls-1" cx="633.69" cy="530.02" r="5.67"/><circle class="cls-1" cx="605.34" cy="558.37" r="5.67"/><circle class="cls-1" cx="605.34" cy="530.02" r="5.67"/><circle class="cls-1" cx="576.99" cy="558.37" r="5.67"/><circle class="cls-1" cx="180.14" cy="572.54" r="5.67"/><circle class="cls-1" cx="151.8" cy="572.54" r="5.67"/><circle class="cls-1" cx="123.45" cy="572.54" r="5.67"/><circle class="cls-1" cx="208.49" cy="572.54" r="5.67"/><circle class="cls-1" cx="95.1" cy="572.54" r="5.67"/><circle class="cls-1" cx="350.22" cy="572.54" r="5.67"/><circle class="cls-1" cx="321.88" cy="572.54" r="5.67"/><circle class="cls-1" cx="293.53" cy="572.54" r="5.67"/><circle class="cls-1" cx="378.57" cy="572.54" r="5.67"/><circle class="cls-1" cx="265.18" cy="572.54" r="5.67"/><circle class="cls-1" cx="236.84" cy="572.54" r="5.67"/><circle class="cls-1" cx="520.3" cy="572.54" r="5.67"/><circle class="cls-1" cx="491.95" cy="572.54" r="5.67"/><circle class="cls-1" cx="463.61" cy="572.54" r="5.67"/><circle class="cls-1" cx="548.65" cy="572.54" r="5.67"/><circle class="cls-1" cx="435.26" cy="572.54" r="5.67"/><circle class="cls-1" cx="406.91" cy="572.54" r="5.67"/><circle class="cls-1" cx="662.03" cy="572.54" r="5.67"/><circle class="cls-1" cx="633.69" cy="572.54" r="5.67"/><circle class="cls-1" cx="605.34" cy="572.54" r="5.67"/><circle class="cls-1" cx="576.99" cy="572.54" r="5.67"/><circle class="cls-1" cx="576.99" cy="530.02" r="5.67"/><circle class="cls-1" cx="194.32" cy="544.2" r="5.67"/><circle class="cls-1" cx="165.97" cy="544.2" r="5.67"/><circle class="cls-1" cx="137.62" cy="544.2" r="5.67"/><circle class="cls-1" cx="222.66" cy="544.2" r="5.67"/><circle class="cls-1" cx="109.28" cy="544.2" r="5.67"/><circle class="cls-1" cx="80.93" cy="544.2" r="5.67"/><circle class="cls-1" cx="364.4" cy="544.2" r="5.67"/><circle class="cls-1" cx="336.05" cy="544.2" r="5.67"/><circle class="cls-1" cx="307.7" cy="544.2" r="5.67"/><circle class="cls-1" cx="392.74" cy="544.2" r="5.67"/><circle class="cls-1" cx="279.36" cy="544.2" r="5.67"/><circle class="cls-1" cx="251.01" cy="544.2" r="5.67"/><circle class="cls-1" cx="534.47" cy="544.2" r="5.67"/><circle class="cls-1" cx="506.13" cy="544.2" r="5.67"/><circle class="cls-1" cx="477.78" cy="544.2" r="5.67"/><circle class="cls-1" cx="562.82" cy="544.2" r="5.67"/><circle class="cls-1" cx="449.43" cy="544.2" r="5.67"/><circle class="cls-1" cx="421.09" cy="544.2" r="5.67"/><circle class="cls-1" cx="704.55" cy="515.85" r="5.67"/><circle class="cls-1" cx="676.21" cy="544.2" r="5.67"/><circle class="cls-1" cx="647.86" cy="544.2" r="5.67"/><circle class="cls-1" cx="619.51" cy="544.2" r="5.67"/><circle class="cls-1" cx="591.17" cy="544.2" r="5.67"/><circle class="cls-1" cx="165.97" cy="515.85" r="5.67"/><circle class="cls-1" cx="137.62" cy="515.85" r="5.67"/><circle class="cls-1" cx="109.28" cy="515.85" r="5.67"/><circle class="cls-1" cx="194.32" cy="515.85" r="5.67"/><circle class="cls-1" cx="80.93" cy="515.85" r="5.67"/><circle class="cls-1" cx="52.58" cy="515.85" r="5.67"/><circle class="cls-1" cx="336.05" cy="515.85" r="5.67"/><circle class="cls-1" cx="307.7" cy="515.85" r="5.67"/><circle class="cls-1" cx="279.36" cy="515.85" r="5.67"/><circle class="cls-1" cx="364.4" cy="515.85" r="5.67"/><circle class="cls-1" cx="251.01" cy="515.85" r="5.67"/><circle class="cls-1" cx="222.66" cy="515.85" r="5.67"/><circle class="cls-1" cx="506.13" cy="515.85" r="5.67"/><circle class="cls-1" cx="477.78" cy="515.85" r="5.67"/><circle class="cls-1" cx="449.43" cy="515.85" r="5.67"/><circle class="cls-1" cx="534.47" cy="515.85" r="5.67"/><circle class="cls-1" cx="421.09" cy="515.85" r="5.67"/><circle class="cls-1" cx="392.74" cy="515.85" r="5.67"/><circle class="cls-1" cx="676.21" cy="515.85" r="5.67"/><circle class="cls-1" cx="647.86" cy="515.85" r="5.67"/><circle class="cls-1" cx="619.51" cy="515.85" r="5.67"/><circle class="cls-1" cx="591.17" cy="515.85" r="5.67"/><circle class="cls-1" cx="562.82" cy="515.85" r="5.67"/><circle class="cls-1" cx="180.14" cy="615.06" r="5.67"/><circle class="cls-1" cx="180.14" cy="586.72" r="5.67"/><circle class="cls-1" cx="151.8" cy="615.06" r="5.67"/><circle class="cls-1" cx="151.8" cy="586.72" r="5.67"/><circle class="cls-1" cx="123.45" cy="615.06" r="5.67"/><circle class="cls-1" cx="123.45" cy="586.72" r="5.67"/><circle class="cls-1" cx="208.49" cy="615.06" r="5.67"/><circle class="cls-1" cx="208.49" cy="586.72" r="5.67"/><circle class="cls-1" cx="95.1" cy="586.72" r="5.67"/><circle class="cls-1" cx="350.22" cy="615.06" r="5.67"/><circle class="cls-1" cx="350.22" cy="586.72" r="5.67"/><circle class="cls-1" cx="321.88" cy="615.06" r="5.67"/><circle class="cls-1" cx="321.88" cy="586.72" r="5.67"/><circle class="cls-1" cx="293.53" cy="615.06" r="5.67"/><circle class="cls-1" cx="293.53" cy="586.72" r="5.67"/><circle class="cls-1" cx="378.57" cy="615.06" r="5.67"/><circle class="cls-1" cx="378.57" cy="586.72" r="5.67"/><circle class="cls-1" cx="265.18" cy="615.06" r="5.67"/><circle class="cls-1" cx="265.18" cy="586.72" r="5.67"/><circle class="cls-1" cx="236.84" cy="615.06" r="5.67"/><circle class="cls-1" cx="236.84" cy="586.72" r="5.67"/><circle class="cls-1" cx="520.3" cy="615.06" r="5.67"/><circle class="cls-1" cx="520.3" cy="586.72" r="5.67"/><circle class="cls-1" cx="491.95" cy="615.06" r="5.67"/><circle class="cls-1" cx="491.95" cy="586.72" r="5.67"/><circle class="cls-1" cx="463.61" cy="615.06" r="5.67"/><circle class="cls-1" cx="463.61" cy="586.72" r="5.67"/><circle class="cls-1" cx="548.65" cy="615.06" r="5.67"/><circle class="cls-1" cx="548.65" cy="586.72" r="5.67"/><circle class="cls-1" cx="435.26" cy="615.06" r="5.67"/><circle class="cls-1" cx="435.26" cy="586.72" r="5.67"/><circle class="cls-1" cx="406.91" cy="615.06" r="5.67"/><circle class="cls-1" cx="406.91" cy="586.72" r="5.67"/><circle class="cls-1" cx="662.03" cy="586.72" r="5.67"/><circle class="cls-1" cx="633.69" cy="615.06" r="5.67"/><circle class="cls-1" cx="633.69" cy="586.72" r="5.67"/><circle class="cls-1" cx="605.34" cy="615.06" r="5.67"/><circle class="cls-1" cx="605.34" cy="586.72" r="5.67"/><circle class="cls-1" cx="576.99" cy="615.06" r="5.67"/><circle class="cls-1" cx="180.14" cy="600.89" r="5.67"/><circle class="cls-1" cx="151.8" cy="600.89" r="5.67"/><circle class="cls-1" cx="123.45" cy="600.89" r="5.67"/><circle class="cls-1" cx="208.49" cy="600.89" r="5.67"/><circle class="cls-1" cx="350.22" cy="600.89" r="5.67"/><circle class="cls-1" cx="321.88" cy="600.89" r="5.67"/><circle class="cls-1" cx="293.53" cy="600.89" r="5.67"/><circle class="cls-1" cx="378.57" cy="600.89" r="5.67"/><circle class="cls-1" cx="265.18" cy="600.89" r="5.67"/><circle class="cls-1" cx="236.84" cy="600.89" r="5.67"/><circle class="cls-1" cx="520.3" cy="600.89" r="5.67"/><circle class="cls-1" cx="491.95" cy="600.89" r="5.67"/><circle class="cls-1" cx="463.61" cy="600.89" r="5.67"/><circle class="cls-1" cx="548.65" cy="600.89" r="5.67"/><circle class="cls-1" cx="435.26" cy="600.89" r="5.67"/><circle class="cls-1" cx="406.91" cy="600.89" r="5.67"/><circle class="cls-1" cx="633.69" cy="600.89" r="5.67"/><circle class="cls-1" cx="605.34" cy="600.89" r="5.67"/><circle class="cls-1" cx="576.99" cy="600.89" r="5.67"/><circle class="cls-1" cx="576.99" cy="586.72" r="5.67"/><circle class="cls-1" cx="180.14" cy="303.25" r="5.67"/><circle class="cls-1" cx="180.14" cy="331.6" r="5.67"/><circle class="cls-1" cx="151.8" cy="303.25" r="5.67"/><circle class="cls-1" cx="151.8" cy="331.6" r="5.67"/><circle class="cls-1" cx="123.45" cy="303.25" r="5.67"/><circle class="cls-1" cx="123.45" cy="331.6" r="5.67"/><circle class="cls-1" cx="208.49" cy="303.25" r="5.67"/><circle class="cls-1" cx="208.49" cy="331.6" r="5.67"/><circle class="cls-1" cx="95.1" cy="303.25" r="5.67"/><circle class="cls-1" cx="95.1" cy="331.6" r="5.67"/><circle class="cls-1" cx="66.76" cy="303.25" r="5.67"/><circle class="cls-1" cx="66.76" cy="331.6" r="5.67"/><circle class="cls-1" cx="38.41" cy="303.25" r="5.67"/><circle class="cls-1" cx="38.41" cy="331.6" r="5.67"/><circle class="cls-1" cx="350.22" cy="303.25" r="5.67"/><circle class="cls-1" cx="350.22" cy="331.6" r="5.67"/><circle class="cls-1" cx="321.88" cy="331.6" r="5.67"/><circle class="cls-1" cx="293.53" cy="303.25" r="5.67"/><circle class="cls-1" cx="293.53" cy="331.6" r="5.67"/><circle class="cls-1" cx="378.57" cy="303.25" r="5.67"/><circle class="cls-1" cx="378.57" cy="331.6" r="5.67"/><circle class="cls-1" cx="265.18" cy="303.25" r="5.67"/><circle class="cls-1" cx="265.18" cy="331.6" r="5.67"/><circle class="cls-1" cx="236.84" cy="303.25" r="5.67"/><circle class="cls-1" cx="236.84" cy="331.6" r="5.67"/><circle class="cls-1" cx="520.3" cy="303.25" r="5.67"/><circle class="cls-1" cx="520.3" cy="331.6" r="5.67"/><circle class="cls-1" cx="491.95" cy="303.25" r="5.67"/><circle class="cls-1" cx="491.95" cy="331.6" r="5.67"/><circle class="cls-1" cx="463.61" cy="303.25" r="5.67"/><circle class="cls-1" cx="463.61" cy="331.6" r="5.67"/><circle class="cls-1" cx="548.65" cy="303.25" r="5.67"/><circle class="cls-1" cx="548.65" cy="331.6" r="5.67"/><circle class="cls-1" cx="435.26" cy="331.6" r="5.67"/><circle class="cls-1" cx="406.91" cy="303.25" r="5.67"/><circle class="cls-1" cx="406.91" cy="331.6" r="5.67"/><circle class="cls-1" cx="690.38" cy="303.25" r="5.67"/><circle class="cls-1" cx="690.38" cy="331.6" r="5.67"/><circle class="cls-1" cx="662.03" cy="303.25" r="5.67"/><circle class="cls-1" cx="662.03" cy="331.6" r="5.67"/><circle class="cls-1" cx="633.69" cy="303.25" r="5.67"/><circle class="cls-1" cx="633.69" cy="331.6" r="5.67"/><circle class="cls-1" cx="718.73" cy="303.25" r="5.67"/><circle class="cls-1" cx="718.73" cy="331.6" r="5.67"/><circle class="cls-1" cx="605.34" cy="303.25" r="5.67"/><circle class="cls-1" cx="605.34" cy="331.6" r="5.67"/><circle class="cls-1" cx="576.99" cy="303.25" r="5.67"/><circle class="cls-1" cx="576.99" cy="331.6" r="5.67"/><circle class="cls-1" cx="180.14" cy="345.77" r="5.67"/><circle class="cls-1" cx="208.49" cy="345.77" r="5.67"/><circle class="cls-1" cx="95.1" cy="345.77" r="5.67"/><circle class="cls-1" cx="66.76" cy="345.77" r="5.67"/><circle class="cls-1" cx="38.41" cy="345.77" r="5.67"/><circle class="cls-1" cx="350.22" cy="345.77" r="5.67"/><circle class="cls-1" cx="321.88" cy="345.77" r="5.67"/><circle class="cls-1" cx="293.53" cy="345.77" r="5.67"/><circle class="cls-1" cx="378.57" cy="345.77" r="5.67"/><circle class="cls-1" cx="265.18" cy="345.77" r="5.67"/><circle class="cls-1" cx="236.84" cy="345.77" r="5.67"/><circle class="cls-1" cx="520.3" cy="345.77" r="5.67"/><circle class="cls-1" cx="491.95" cy="345.77" r="5.67"/><circle class="cls-1" cx="463.61" cy="345.77" r="5.67"/><circle class="cls-1" cx="548.65" cy="345.77" r="5.67"/><circle class="cls-1" cx="435.26" cy="345.77" r="5.67"/><circle class="cls-1" cx="406.91" cy="345.77" r="5.67"/><circle class="cls-1" cx="690.38" cy="345.77" r="5.67"/><circle class="cls-1" cx="662.03" cy="345.77" r="5.67"/><circle class="cls-1" cx="718.73" cy="345.77" r="5.67"/><circle class="cls-1" cx="576.99" cy="345.77" r="5.67"/><circle class="cls-1" cx="180.14" cy="246.56" r="5.67"/><circle class="cls-1" cx="180.14" cy="274.91" r="5.67"/><circle class="cls-1" cx="151.8" cy="246.56" r="5.67"/><circle class="cls-1" cx="151.8" cy="274.91" r="5.67"/><circle class="cls-1" cx="123.45" cy="246.56" r="5.67"/><circle class="cls-1" cx="123.45" cy="274.91" r="5.67"/><circle class="cls-1" cx="208.49" cy="246.56" r="5.67"/><circle class="cls-1" cx="208.49" cy="274.91" r="5.67"/><circle class="cls-1" cx="95.1" cy="246.56" r="5.67"/><circle class="cls-1" cx="95.1" cy="274.91" r="5.67"/><circle class="cls-1" cx="66.76" cy="246.56" r="5.67"/><circle class="cls-1" cx="66.76" cy="274.91" r="5.67"/><circle class="cls-1" cx="38.41" cy="274.91" r="5.67"/><circle class="cls-1" cx="350.22" cy="246.56" r="5.67"/><circle class="cls-1" cx="350.22" cy="274.91" r="5.67"/><circle class="cls-1" cx="321.88" cy="246.56" r="5.67"/><circle class="cls-1" cx="321.88" cy="274.91" r="5.67"/><circle class="cls-1" cx="293.53" cy="246.56" r="5.67"/><circle class="cls-1" cx="293.53" cy="274.91" r="5.67"/><circle class="cls-1" cx="378.57" cy="246.56" r="5.67"/><circle class="cls-1" cx="378.57" cy="274.91" r="5.67"/><circle class="cls-1" cx="265.18" cy="246.56" r="5.67"/><circle class="cls-1" cx="265.18" cy="274.91" r="5.67"/><circle class="cls-1" cx="236.84" cy="246.56" r="5.67"/><circle class="cls-1" cx="236.84" cy="274.91" r="5.67"/><circle class="cls-1" cx="520.3" cy="246.56" r="5.67"/><circle class="cls-1" cx="520.3" cy="274.91" r="5.67"/><circle class="cls-1" cx="491.95" cy="246.56" r="5.67"/><circle class="cls-1" cx="491.95" cy="274.91" r="5.67"/><circle class="cls-1" cx="463.61" cy="246.56" r="5.67"/><circle class="cls-1" cx="463.61" cy="274.91" r="5.67"/><circle class="cls-1" cx="548.65" cy="246.56" r="5.67"/><circle class="cls-1" cx="548.65" cy="274.91" r="5.67"/><circle class="cls-1" cx="435.26" cy="246.56" r="5.67"/><circle class="cls-1" cx="435.26" cy="274.91" r="5.67"/><circle class="cls-1" cx="406.91" cy="246.56" r="5.67"/><circle class="cls-1" cx="406.91" cy="274.91" r="5.67"/><circle class="cls-1" cx="690.38" cy="246.56" r="5.67"/><circle class="cls-1" cx="690.38" cy="274.91" r="5.67"/><circle class="cls-1" cx="662.03" cy="246.56" r="5.67"/><circle class="cls-1" cx="662.03" cy="274.91" r="5.67"/><circle class="cls-1" cx="633.69" cy="246.56" r="5.67"/><circle class="cls-1" cx="633.69" cy="274.91" r="5.67"/><circle class="cls-1" cx="718.73" cy="274.91" r="5.67"/><circle class="cls-1" cx="605.34" cy="246.56" r="5.67"/><circle class="cls-1" cx="605.34" cy="274.91" r="5.67"/><circle class="cls-1" cx="576.99" cy="246.56" r="5.67"/><circle class="cls-1" cx="180.14" cy="232.39" r="5.67"/><circle class="cls-1" cx="151.8" cy="232.39" r="5.67"/><circle class="cls-1" cx="123.45" cy="232.39" r="5.67"/><circle class="cls-1" cx="208.49" cy="232.39" r="5.67"/><circle class="cls-1" cx="95.1" cy="232.39" r="5.67"/><circle class="cls-1" cx="66.76" cy="232.39" r="5.67"/><circle class="cls-1" cx="350.22" cy="232.39" r="5.67"/><circle class="cls-1" cx="321.88" cy="232.39" r="5.67"/><circle class="cls-1" cx="293.53" cy="232.39" r="5.67"/><circle class="cls-1" cx="378.57" cy="232.39" r="5.67"/><circle class="cls-1" cx="265.18" cy="232.39" r="5.67"/><circle class="cls-1" cx="236.84" cy="232.39" r="5.67"/><circle class="cls-1" cx="520.3" cy="232.39" r="5.67"/><circle class="cls-1" cx="491.95" cy="232.39" r="5.67"/><circle class="cls-1" cx="463.61" cy="232.39" r="5.67"/><circle class="cls-1" cx="548.65" cy="232.39" r="5.67"/><circle class="cls-1" cx="435.26" cy="232.39" r="5.67"/><circle class="cls-1" cx="406.91" cy="232.39" r="5.67"/><circle class="cls-1" cx="690.38" cy="232.39" r="5.67"/><circle class="cls-1" cx="662.03" cy="232.39" r="5.67"/><circle class="cls-1" cx="633.69" cy="232.39" r="5.67"/><circle class="cls-1" cx="605.34" cy="232.39" r="5.67"/><circle class="cls-1" cx="576.99" cy="232.39" r="5.67"/><circle class="cls-1" cx="180.14" cy="204.04" r="5.67"/><circle class="cls-1" cx="151.8" cy="204.04" r="5.67"/><circle class="cls-1" cx="123.45" cy="204.04" r="5.67"/><circle class="cls-1" cx="208.49" cy="204.04" r="5.67"/><circle class="cls-1" cx="95.1" cy="204.04" r="5.67"/><circle class="cls-1" cx="66.76" cy="204.04" r="5.67"/><circle class="cls-1" cx="350.22" cy="204.04" r="5.67"/><circle class="cls-1" cx="321.88" cy="204.04" r="5.67"/><circle class="cls-1" cx="293.53" cy="204.04" r="5.67"/><circle class="cls-1" cx="378.57" cy="204.04" r="5.67"/><circle class="cls-1" cx="265.18" cy="204.04" r="5.67"/><circle class="cls-1" cx="236.84" cy="204.04" r="5.67"/><circle class="cls-1" cx="520.3" cy="204.04" r="5.67"/><circle class="cls-1" cx="491.95" cy="204.04" r="5.67"/><circle class="cls-1" cx="463.61" cy="204.04" r="5.67"/><circle class="cls-1" cx="548.65" cy="204.04" r="5.67"/><circle class="cls-1" cx="435.26" cy="204.04" r="5.67"/><circle class="cls-1" cx="406.91" cy="204.04" r="5.67"/><circle class="cls-1" cx="690.38" cy="204.04" r="5.67"/><circle class="cls-1" cx="662.03" cy="204.04" r="5.67"/><circle class="cls-1" cx="633.69" cy="204.04" r="5.67"/><circle class="cls-1" cx="605.34" cy="204.04" r="5.67"/><circle class="cls-1" cx="576.99" cy="204.04" r="5.67"/><circle class="cls-1" cx="165.97" cy="262.15" r="5.67"/><circle class="cls-1" cx="137.62" cy="262.15" r="5.67"/><circle class="cls-1" cx="109.28" cy="262.15" r="5.67"/><circle class="cls-1" cx="194.32" cy="262.15" r="5.67"/><circle class="cls-1" cx="80.93" cy="262.15" r="5.67"/><circle class="cls-1" cx="336.05" cy="262.15" r="5.67"/><circle class="cls-1" cx="307.7" cy="262.15" r="5.67"/><circle class="cls-1" cx="279.36" cy="262.15" r="5.67"/><circle class="cls-1" cx="364.4" cy="262.15" r="5.67"/><circle class="cls-1" cx="251.01" cy="262.15" r="5.67"/><circle class="cls-1" cx="222.66" cy="262.15" r="5.67"/><circle class="cls-1" cx="506.13" cy="262.15" r="5.67"/><circle class="cls-1" cx="477.78" cy="262.15" r="5.67"/><circle class="cls-1" cx="449.43" cy="262.15" r="5.67"/><circle class="cls-1" cx="534.47" cy="262.15" r="5.67"/><circle class="cls-1" cx="421.09" cy="262.15" r="5.67"/><circle class="cls-1" cx="392.74" cy="262.15" r="5.67"/><circle class="cls-1" cx="676.21" cy="262.15" r="5.67"/><circle class="cls-1" cx="647.86" cy="262.15" r="5.67"/><circle class="cls-1" cx="619.51" cy="262.15" r="5.67"/><circle class="cls-1" cx="591.17" cy="262.15" r="5.67"/><circle class="cls-1" cx="562.82" cy="262.15" r="5.67"/><circle class="cls-1" cx="576.99" cy="274.91" r="5.67"/><circle class="cls-1" cx="180.14" cy="189.87" r="5.67"/><circle class="cls-1" cx="180.14" cy="218.21" r="5.67"/><circle class="cls-1" cx="151.8" cy="189.87" r="5.67"/><circle class="cls-1" cx="151.8" cy="218.21" r="5.67"/><circle class="cls-1" cx="123.45" cy="189.87" r="5.67"/><circle class="cls-1" cx="123.45" cy="218.21" r="5.67"/><circle class="cls-1" cx="208.49" cy="189.87" r="5.67"/><circle class="cls-1" cx="208.49" cy="218.21" r="5.67"/><circle class="cls-1" cx="95.1" cy="189.87" r="5.67"/><circle class="cls-1" cx="95.1" cy="218.21" r="5.67"/><circle class="cls-1" cx="66.76" cy="218.21" r="5.67"/><circle class="cls-1" cx="350.22" cy="189.87" r="5.67"/><circle class="cls-1" cx="350.22" cy="218.21" r="5.67"/><circle class="cls-1" cx="321.88" cy="189.87" r="5.67"/><circle class="cls-1" cx="321.88" cy="218.21" r="5.67"/><circle class="cls-1" cx="293.53" cy="189.87" r="5.67"/><circle class="cls-1" cx="293.53" cy="218.21" r="5.67"/><circle class="cls-1" cx="378.57" cy="218.21" r="5.67"/><circle class="cls-1" cx="265.18" cy="189.87" r="5.67"/><circle class="cls-1" cx="265.18" cy="218.21" r="5.67"/><circle class="cls-1" cx="236.84" cy="189.87" r="5.67"/><circle class="cls-1" cx="236.84" cy="218.21" r="5.67"/><circle class="cls-1" cx="520.3" cy="189.87" r="5.67"/><circle class="cls-1" cx="520.3" cy="218.21" r="5.67"/><circle class="cls-1" cx="491.95" cy="189.87" r="5.67"/><circle class="cls-1" cx="491.95" cy="218.21" r="5.67"/><circle class="cls-1" cx="463.61" cy="189.87" r="5.67"/><circle class="cls-1" cx="463.61" cy="218.21" r="5.67"/><circle class="cls-1" cx="548.65" cy="189.87" r="5.67"/><circle class="cls-1" cx="548.65" cy="218.21" r="5.67"/><circle class="cls-1" cx="435.26" cy="189.87" r="5.67"/><circle class="cls-1" cx="435.26" cy="218.21" r="5.67"/><circle class="cls-1" cx="406.91" cy="189.87" r="5.67"/><circle class="cls-1" cx="406.91" cy="218.21" r="5.67"/><circle class="cls-1" cx="690.38" cy="218.21" r="5.67"/><circle class="cls-1" cx="662.03" cy="189.87" r="5.67"/><circle class="cls-1" cx="662.03" cy="218.21" r="5.67"/><circle class="cls-1" cx="633.69" cy="189.87" r="5.67"/><circle class="cls-1" cx="633.69" cy="218.21" r="5.67"/><circle class="cls-1" cx="605.34" cy="189.87" r="5.67"/><circle class="cls-1" cx="605.34" cy="218.21" r="5.67"/><circle class="cls-1" cx="576.99" cy="189.87" r="5.67"/><circle class="cls-1" cx="576.99" cy="218.21" r="5.67"/><circle class="cls-1" cx="180.14" cy="133.17" r="5.67"/><circle class="cls-1" cx="180.14" cy="161.52" r="5.67"/><circle class="cls-1" cx="151.8" cy="133.17" r="5.67"/><circle class="cls-1" cx="151.8" cy="161.52" r="5.67"/><circle class="cls-1" cx="123.45" cy="133.17" r="5.67"/><circle class="cls-1" cx="123.45" cy="161.52" r="5.67"/><circle class="cls-1" cx="208.49" cy="133.17" r="5.67"/><circle class="cls-1" cx="208.49" cy="161.52" r="5.67"/><circle class="cls-1" cx="95.1" cy="161.52" r="5.67"/><circle class="cls-1" cx="321.88" cy="133.17" r="5.67"/><circle class="cls-1" cx="321.88" cy="161.52" r="5.67"/><circle class="cls-1" cx="293.53" cy="133.17" r="5.67"/><circle class="cls-1" cx="293.53" cy="161.52" r="5.67"/><circle class="cls-1" cx="265.18" cy="133.17" r="5.67"/><circle class="cls-1" cx="265.18" cy="161.52" r="5.67"/><circle class="cls-1" cx="236.84" cy="133.17" r="5.67"/><circle class="cls-1" cx="236.84" cy="161.52" r="5.67"/><circle class="cls-1" cx="520.3" cy="133.17" r="5.67"/><circle class="cls-1" cx="520.3" cy="161.52" r="5.67"/><circle class="cls-1" cx="491.95" cy="133.17" r="5.67"/><circle class="cls-1" cx="491.95" cy="161.52" r="5.67"/><circle class="cls-1" cx="463.61" cy="133.17" r="5.67"/><circle class="cls-1" cx="463.61" cy="161.52" r="5.67"/><circle class="cls-1" cx="548.65" cy="133.17" r="5.67"/><circle class="cls-1" cx="548.65" cy="161.52" r="5.67"/><circle class="cls-1" cx="435.26" cy="133.17" r="5.67"/><circle class="cls-1" cx="435.26" cy="161.52" r="5.67"/><circle class="cls-1" cx="662.03" cy="161.52" r="5.67"/><circle class="cls-1" cx="633.69" cy="133.17" r="5.67"/><circle class="cls-1" cx="633.69" cy="161.52" r="5.67"/><circle class="cls-1" cx="605.34" cy="133.17" r="5.67"/><circle class="cls-1" cx="605.34" cy="161.52" r="5.67"/><circle class="cls-1" cx="576.99" cy="133.17" r="5.67"/><circle class="cls-1" cx="534.47" cy="119" r="5.67"/><circle class="cls-1" cx="506.13" cy="119" r="5.67"/><circle class="cls-1" cx="477.78" cy="119" r="5.67"/><circle class="cls-1" cx="562.82" cy="119" r="5.67"/><circle class="cls-1" cx="449.43" cy="119" r="5.67"/><circle class="cls-1" cx="619.51" cy="119" r="5.67"/><circle class="cls-1" cx="591.17" cy="119" r="5.67"/><circle class="cls-1" cx="534.47" cy="147.35" r="5.67"/><circle class="cls-1" cx="506.13" cy="147.35" r="5.67"/><circle class="cls-1" cx="477.78" cy="147.35" r="5.67"/><circle class="cls-1" cx="562.82" cy="147.35" r="5.67"/><circle class="cls-1" cx="449.43" cy="147.35" r="5.67"/><circle class="cls-1" cx="647.86" cy="147.35" r="5.67"/><circle class="cls-1" cx="619.51" cy="147.35" r="5.67"/><circle class="cls-1" cx="591.17" cy="147.35" r="5.67"/><circle class="cls-1" cx="534.47" cy="175.69" r="5.67"/><circle class="cls-1" cx="506.13" cy="175.69" r="5.67"/><circle class="cls-1" cx="477.78" cy="175.69" r="5.67"/><circle class="cls-1" cx="562.82" cy="175.69" r="5.67"/><circle class="cls-1" cx="449.43" cy="175.69" r="5.67"/><circle class="cls-1" cx="647.86" cy="175.69" r="5.67"/><circle class="cls-1" cx="619.51" cy="175.69" r="5.67"/><circle class="cls-1" cx="591.17" cy="175.69" r="5.67"/><circle class="cls-1" cx="194.32" cy="175.69" r="5.67"/><circle class="cls-1" cx="165.97" cy="175.69" r="5.67"/><circle class="cls-1" cx="137.62" cy="175.69" r="5.67"/><circle class="cls-1" cx="222.66" cy="175.69" r="5.67"/><circle class="cls-1" cx="109.28" cy="175.69" r="5.67"/><circle class="cls-1" cx="307.7" cy="175.69" r="5.67"/><circle class="cls-1" cx="279.36" cy="175.69" r="5.67"/><circle class="cls-1" cx="251.01" cy="175.69" r="5.67"/><circle class="cls-1" cx="194.32" cy="147.35" r="5.67"/><circle class="cls-1" cx="165.97" cy="147.35" r="5.67"/><circle class="cls-1" cx="137.62" cy="147.35" r="5.67"/><circle class="cls-1" cx="222.66" cy="147.35" r="5.67"/><circle class="cls-1" cx="109.28" cy="147.35" r="5.67"/><circle class="cls-1" cx="307.7" cy="147.35" r="5.67"/><circle class="cls-1" cx="279.36" cy="147.35" r="5.67"/><circle class="cls-1" cx="251.01" cy="147.35" r="5.67"/><circle class="cls-1" cx="194.32" cy="119" r="5.67"/><circle class="cls-1" cx="165.97" cy="119" r="5.67"/><circle class="cls-1" cx="137.62" cy="119" r="5.67"/><circle class="cls-1" cx="222.66" cy="119" r="5.67"/><circle class="cls-1" cx="307.7" cy="119" r="5.67"/><circle class="cls-1" cx="279.36" cy="119" r="5.67"/><circle class="cls-1" cx="251.01" cy="119" r="5.67"/><circle class="cls-1" cx="576.99" cy="161.52" r="5.67"/><circle class="cls-1" cx="180.14" cy="76.48" r="5.67"/><circle class="cls-1" cx="180.14" cy="104.83" r="5.67"/><circle class="cls-1" cx="151.8" cy="104.83" r="5.67"/><circle class="cls-1" cx="208.49" cy="104.83" r="5.67"/><circle class="cls-1" cx="350.22" cy="104.83" r="5.67"/><circle class="cls-1" cx="321.88" cy="104.83" r="5.67"/><circle class="cls-1" cx="293.53" cy="104.83" r="5.67"/><circle class="cls-1" cx="265.18" cy="104.83" r="5.67"/><circle class="cls-1" cx="236.84" cy="104.83" r="5.67"/><circle class="cls-1" cx="520.3" cy="104.83" r="5.67"/><circle class="cls-1" cx="491.95" cy="104.83" r="5.67"/><circle class="cls-1" cx="463.61" cy="104.83" r="5.67"/><circle class="cls-1" cx="548.65" cy="104.83" r="5.67"/><circle class="cls-1" cx="435.26" cy="104.83" r="5.67"/><circle class="cls-1" cx="406.91" cy="104.83" r="5.67"/><circle class="cls-1" cx="605.34" cy="104.83" r="5.67"/><circle class="cls-1" cx="576.99" cy="76.48" r="5.67"/><circle class="cls-1" cx="576.99" cy="104.83" r="5.67"/><circle class="cls-1" cx="180.14" cy="671.76" r="5.67"/><circle class="cls-1" cx="180.14" cy="643.41" r="5.67"/><circle class="cls-1" cx="151.8" cy="643.41" r="5.67"/><circle class="cls-1" cx="208.49" cy="671.76" r="5.67"/><circle class="cls-1" cx="208.49" cy="643.41" r="5.67"/><circle class="cls-1" cx="321.88" cy="671.76" r="5.67"/><circle class="cls-1" cx="293.53" cy="671.76" r="5.67"/><circle class="cls-1" cx="293.53" cy="643.41" r="5.67"/><circle class="cls-1" cx="265.18" cy="671.76" r="5.67"/><circle class="cls-1" cx="265.18" cy="643.41" r="5.67"/><circle class="cls-1" cx="236.84" cy="671.76" r="5.67"/><circle class="cls-1" cx="236.84" cy="643.41" r="5.67"/><circle class="cls-1" cx="520.3" cy="671.76" r="5.67"/><circle class="cls-1" cx="520.3" cy="643.41" r="5.67"/><circle class="cls-1" cx="491.95" cy="671.76" r="5.67"/><circle class="cls-1" cx="491.95" cy="643.41" r="5.67"/><circle class="cls-1" cx="463.61" cy="671.76" r="5.67"/><circle class="cls-1" cx="463.61" cy="643.41" r="5.67"/><circle class="cls-1" cx="548.65" cy="671.76" r="5.67"/><circle class="cls-1" cx="548.65" cy="643.41" r="5.67"/><circle class="cls-1" cx="435.26" cy="671.76" r="5.67"/><circle class="cls-1" cx="605.34" cy="643.41" r="5.67"/><circle class="cls-1" cx="576.99" cy="671.76" r="5.67"/><circle class="cls-1" cx="520.3" cy="685.93" r="5.67"/><circle class="cls-1" cx="491.95" cy="685.93" r="5.67"/><circle class="cls-1" cx="463.61" cy="685.93" r="5.67"/><circle class="cls-1" cx="548.65" cy="685.93" r="5.67"/><circle class="cls-1" cx="435.26" cy="685.93" r="5.67"/><circle class="cls-1" cx="576.99" cy="685.93" r="5.67"/><circle class="cls-1" cx="265.18" cy="685.93" r="5.67"/><circle class="cls-1" cx="236.84" cy="685.93" r="5.67"/><circle class="cls-1" cx="208.49" cy="685.93" r="5.67"/><circle class="cls-1" cx="293.53" cy="685.93" r="5.67"/><circle class="cls-1" cx="180.14" cy="685.93" r="5.67"/><circle class="cls-1" cx="321.88" cy="685.93" r="5.67"/><circle class="cls-1" cx="534.47" cy="657.58" r="5.67"/><circle class="cls-1" cx="506.13" cy="657.58" r="5.67"/><circle class="cls-1" cx="477.78" cy="657.58" r="5.67"/><circle class="cls-1" cx="562.82" cy="657.58" r="5.67"/><circle class="cls-1" cx="449.43" cy="657.58" r="5.67"/><circle class="cls-1" cx="591.17" cy="657.58" r="5.67"/><circle class="cls-1" cx="251.01" cy="657.58" r="5.67"/><circle class="cls-1" cx="222.66" cy="657.58" r="5.67"/><circle class="cls-1" cx="194.32" cy="657.58" r="5.67"/><circle class="cls-1" cx="279.36" cy="657.58" r="5.67"/><circle class="cls-1" cx="165.97" cy="657.58" r="5.67"/><circle class="cls-1" cx="307.7" cy="657.58" r="5.67"/><circle class="cls-1" cx="576.99" cy="643.41" r="5.67"/><circle class="cls-1" cx="350.22" cy="728.45" r="5.67"/><circle class="cls-1" cx="321.88" cy="728.45" r="5.67"/><circle class="cls-1" cx="293.53" cy="700.1" r="5.67"/><circle class="cls-1" cx="378.57" cy="728.45" r="5.67"/><circle class="cls-1" cx="265.18" cy="700.1" r="5.67"/><circle class="cls-1" cx="236.84" cy="700.1" r="5.67"/><circle class="cls-1" cx="520.3" cy="700.1" r="5.67"/><circle class="cls-1" cx="491.95" cy="700.1" r="5.67"/><circle class="cls-1" cx="463.61" cy="700.1" r="5.67"/><circle class="cls-1" cx="435.26" cy="728.45" r="5.67"/><circle class="cls-1" cx="406.91" cy="728.45" r="5.67"/></svg>